<?xml version="1.0" encoding="utf-8"?>
<!-- Generator: Adobe Illustrator 27.5.0, SVG Export Plug-In . SVG Version: 6.00 Build 0)  -->
<svg version="1.1" xmlns="http://www.w3.org/2000/svg" xmlns:xlink="http://www.w3.org/1999/xlink" x="0px" y="0px"
	 viewBox="0 0 750 500" style="enable-background:new 0 0 750 500;" xml:space="preserve">
<g id="BACKGROUND">
	<rect style="fill:#FFFFFF;" width="750" height="500"/>
</g>
<g id="OBJECTS">
	<g>
		<g>
			<g>
				<g>
					<path style="fill:#EBD6E6;" d="M140.781,458.278c0,0-102.249-20.224-107.462-91.671c-6-82.233,76.518-83.14,63.86-142.747
						c-17.668-83.197,13.975-144.688,91.39-141.27c65.278,2.882,123.253,65.941,158.176,21.992
						C384.41,57.184,454.863,22.163,524.582,51.52c69.719,29.357,59.448,124.754,107.665,145.024
						c134.804,50.579,118.106,258.338-39.157,262.481C558.357,459.777,166.652,458.339,140.781,458.278z"/>
					<path style="fill:#EBD6E6;" d="M649.088,182.158c0,0-18.898-36.426,13.356-53.964c34.721-18.88,61.339,16.193,53.143,45.072
						C707.391,202.145,659.149,200.863,649.088,182.158z"/>
					<path style="fill:#EBD6E6;" d="M51.956,209.046c-31.879-28.209,31.643-56.858,30.364-16.52
						C80.298,201.278,68.993,220.475,51.956,209.046z"/>
				</g>
				<g>
					<g>
						<g>
							<path style="fill:none;stroke:#D4A5CF;stroke-miterlimit:10;" d="M583.259,458.581c-8.402,0.591-42.331,1.133-36.324-27.604
								c5.898-22.145-26.203-21.448-16.62-42.847c2.307-8.102-8.087-5.333-10.096-17.526c-2.009-12.193,5.597-22.394,18.759-22.328
								c13.162,0.066,10.21,13.721,14.498,18.764c4.288,5.043,10.932,0.398,15.325,12.416c4.663,16.914-3.177,18.967,11.133,27.335"
								/>
							<g>
								<g>
									<g>
										<path style="fill:#D4A5CF;" d="M569.126,425.904c-6.504-13.231-13.388-26.275-20.614-39.126
											c-2.45-4.357-4.94-8.69-7.468-13.001c-0.488-0.832-1.785-0.078-1.295,0.757c8.113,13.84,15.833,27.91,23.116,42.205
											c1.679,3.296,3.334,6.604,4.966,9.923C568.257,427.527,569.551,426.768,569.126,425.904L569.126,425.904z"/>
									</g>
								</g>
								<g>
									<g>
										<path style="fill:#D4A5CF;" d="M535.531,398.358c5.591,0.58,11.183,1.16,16.774,1.74c0.805,0.084,1.61,0.167,2.415,0.251
											c0.959,0.099,0.952-1.401,0-1.5c-5.591-0.58-11.183-1.16-16.774-1.74c-0.805-0.083-1.61-0.167-2.415-0.25
											C534.572,396.758,534.579,398.259,535.531,398.358L535.531,398.358z"/>
									</g>
								</g>
							</g>
							<g>
								<path style="fill:none;stroke:#D4A5CF;stroke-miterlimit:10;" d="M542.236,388.646c0.058,3.26-5.862,3.261-5.803,0
									C536.375,385.386,542.295,385.386,542.236,388.646z"/>
								<path style="fill:none;stroke:#D4A5CF;stroke-miterlimit:10;" d="M548.7,366.045c-1.835,3.287-6.955,0.331-5.025-2.902
									C545.51,359.856,550.63,362.812,548.7,366.045z"/>
								<path style="fill:none;stroke:#D4A5CF;stroke-miterlimit:10;" d="M560.382,431.875c0.073,4.063-7.305,4.063-7.232,0
									C553.077,427.812,560.456,427.811,560.382,431.875z"/>
								<path style="fill:none;stroke:#D4A5CF;stroke-miterlimit:10;" d="M543.523,358.615c0.025,1.673-2.604,1.673-2.579,0
									C540.92,356.942,543.548,356.942,543.523,358.615z"/>
							</g>
						</g>
						<g>
							<path style="fill:none;stroke:#D4A5CF;stroke-miterlimit:10;" d="M632.689,455.792c-6.956-4.96-7.642-36.421,20.87-42.788
								c14.561-3.252,12.229-10.541,15.171-19.917c2.942-9.376,6.634-10.066,14.969-11.338c8.335-1.272,2.077-12.634,11.97-19.213
								c9.893-6.579,23.173-7.084,28.12,7.296c4.188,12.175-7.676,17.538-10.096,23.2c-2.42,5.662,4.62,13.306-3.964,21.844
								c-8.584,8.538-17.766,2.111-17.878,11.153c-0.112,9.042-4.13,25.516-12.846,28.906
								C668.224,459.128,638.18,459.708,632.689,455.792z"/>
							<g>
								<g>
									<path style="fill:#D4A5CF;" d="M642.375,459.371c3.846-4.59,7.841-9.059,11.696-13.643
										c9.581-11.393,18.938-22.976,28.076-34.727c6.634-8.531,13.149-17.154,19.529-25.876c0.571-0.78-0.73-1.529-1.295-0.757
										c-10.735,14.675-21.85,29.071-33.282,43.21c-7.125,8.811-14.367,17.531-21.768,26.112
										c-1.332,1.545-2.707,3.057-4.017,4.621C640.699,459.045,641.754,460.112,642.375,459.371L642.375,459.371z"/>
								</g>
							</g>
						</g>
						<g>
							<path style="fill:none;stroke:#D4A5CF;stroke-miterlimit:10;" d="M652.067,413.368
								c-9.861-41.084,15.738-18.263,33.706-51.022c10.702-25.023-15.503-34.117-3.179-44.587
								c12.324-10.471,15.764-46.45-2.288-52.637c-23.403-8.021-44.436,6.651-47.295,25.977
								c-2.205,14.907,7.79,25.318-18.222,36.245c-26.012,10.928-21.993,24.498-16.65,50.451
								c5.343,25.953-12.235,16.438-25.896,38.346c-10.826,17.36,4.388,35.066,11.171,41.67l52.649,0.904"/>
							<g>
								<g>
									<g>
										<path style="fill:#D4A5CF;" d="M594.137,457.807c2.139-4.937,4.287-9.871,6.437-14.803
											c5.296-12.153,10.61-24.297,15.945-36.433c6.801-15.472,13.634-30.931,20.521-46.366
											c6.664-14.936,13.37-29.854,20.213-44.709c4.794-10.408,9.569-20.85,14.826-31.034c0.403-0.781,0.811-1.56,1.226-2.335
											c0.456-0.851-0.839-1.609-1.295-0.757c-5.029,9.387-9.452,19.116-13.929,28.773c-6.712,14.48-13.271,29.03-19.788,43.599
											c-6.964,15.568-13.868,31.164-20.739,46.774c-5.62,12.768-11.217,25.546-16.794,38.333
											c-2.606,5.975-5.358,11.912-7.81,17.953c-0.034,0.084-0.072,0.167-0.108,0.25
											C592.462,457.927,593.754,458.692,594.137,457.807L594.137,457.807z"/>
									</g>
								</g>
								<g>
									<g>
										<g>
											<path style="fill:#D4A5CF;" d="M642.114,348.187c10.301-0.57,20.601-1.14,30.901-1.709
												c1.466-0.081,2.932-0.162,4.398-0.243c0.96-0.053,0.966-1.553,0-1.5c-10.3,0.57-20.601,1.14-30.901,1.709
												c-1.466,0.081-2.932,0.162-4.398,0.243C641.154,346.74,641.148,348.241,642.114,348.187L642.114,348.187z"/>
										</g>
									</g>
									<g>
										<g>
											<path style="fill:#D4A5CF;" d="M606.473,428.585c8.14-0.916,16.28-1.831,24.421-2.747
												c1.14-0.128,2.279-0.256,3.419-0.384c0.948-0.107,0.959-1.608,0-1.5c-8.14,0.916-16.28,1.831-24.421,2.747
												c-1.14,0.128-2.279,0.256-3.419,0.385C605.524,427.192,605.513,428.693,606.473,428.585L606.473,428.585z"/>
										</g>
									</g>
								</g>
								<g>
									<g>
										<path style="fill:#D4A5CF;" d="M603.168,340.308c2.34,5.252,4.679,10.503,7.019,15.755
											c3.713,8.335,7.426,16.67,11.139,25.004c0.861,1.932,1.722,3.865,2.583,5.797c0.392,0.88,1.685,0.118,1.295-0.757
											c-2.34-5.252-4.679-10.504-7.019-15.755c-3.713-8.335-7.426-16.67-11.139-25.004c-0.861-1.932-1.722-3.865-2.583-5.797
											C604.071,338.671,602.778,339.433,603.168,340.308L603.168,340.308z"/>
									</g>
								</g>
							</g>
							<path style="fill:none;stroke:#D4A5CF;stroke-miterlimit:10;" d="M654.096,286.826c-3.993,6.005-11.298,1.033-7.174-4.884
								C650.914,275.937,658.219,280.909,654.096,286.826z"/>
							<path style="fill:none;stroke:#D4A5CF;stroke-miterlimit:10;" d="M655.362,300.537c0.046,3.149-4.9,3.149-4.854,0
								C650.462,297.388,655.409,297.388,655.362,300.537z"/>
							<path style="fill:none;stroke:#D4A5CF;stroke-miterlimit:10;" d="M672.958,363.133c0.089,6.118-9.522,6.118-9.432,0
								C663.437,357.014,673.048,357.014,672.958,363.133z"/>
						</g>
					</g>
					<g>
						<g>
							<g>
								<path style="fill:none;stroke:#D4A5CF;stroke-miterlimit:10;" d="M80.773,457.755c-5.604,1.468-30.947,5.674-30.542-14.515
									c0.207-10.311-2.799-9.936-8.841-13.977c-6.042-4.041-5.896-6.625-5.366-12.395c0.53-5.77-5.222-2.976-9.052-10.563
									c-4.583-9.077,0.935-15.849,9.841-17.478c8.905-1.63,8.646,7.976,12.186,10.839c3.54,2.863,8.433-3.294,15.234,5.054
									c4.44,5.45-2.454,17.884,4.077,16.725"/>
							</g>
							<g>
								<g>
									<g>
										<path style="fill:#D4A5CF;" d="M69.081,439.788c-8.7-11.756-17.889-23.148-27.488-34.18
											c-0.635-0.73-1.692,0.335-1.061,1.061c9.516,10.936,18.63,22.223,27.254,33.876
											C68.353,441.313,69.656,440.565,69.081,439.788L69.081,439.788z"/>
									</g>
								</g>
								<g>
									<g>
										<path style="fill:#D4A5CF;" d="M54.329,405.066c-0.321,4.805-0.642,9.609-0.963,14.414
											c-0.045,0.679-0.091,1.357-0.136,2.036c0.25-0.25,0.5-0.5,0.75-0.75c-4.408,0.365-8.816,0.73-13.224,1.095
											c-0.955,0.079-0.964,1.58,0,1.5c4.408-0.365,8.816-0.73,13.224-1.095c0.425-0.035,0.721-0.316,0.75-0.75
											c0.321-4.805,0.642-9.609,0.963-14.414c0.045-0.678,0.091-1.357,0.136-2.036
											C55.893,404.102,54.393,404.106,54.329,405.066L54.329,405.066z"/>
									</g>
								</g>
							</g>
						</g>
						<g>
							<g>
								<path style="fill:none;stroke:#D4A5CF;stroke-miterlimit:10;" d="M41.194,338.359c-33.61-41.928,30.28-72.655,44.475-22.925
									c1.977,12.818-6.988,21.77,16.344,31.167c23.331,9.397,19.727,21.066,14.934,43.384
									c-4.793,22.318,10.974,14.135,23.228,32.974c9.71,14.928-3.936,30.154-10.02,35.833l-47.723-0.233
									c-19.753-10.555-14.443-34.267-12.11-51.07c1.729-16.767-22.376-9.272-31.978-30.789
									C28.743,355.183,52.248,347.363,41.194,338.359z"/>
							</g>
							<g>
								<g>
									<g>
										<path style="fill:#D4A5CF;" d="M121.766,458.086c-1.92-4.248-3.847-8.492-5.776-12.735
											c-4.75-10.45-9.516-20.892-14.3-31.326c-6.1-13.304-12.227-26.595-18.403-39.864
											c-5.963-12.813-11.964-25.61-18.084-38.349c-4.317-8.985-8.617-18.001-13.343-26.781
											c-0.363-0.675-0.731-1.347-1.105-2.016c-0.471-0.843-1.767-0.087-1.295,0.757c4.505,8.063,8.478,16.439,12.497,24.75
											c6.018,12.446,11.901,24.958,17.746,37.486c6.245,13.384,12.437,26.792,18.599,40.214
											c5.03,10.954,10.039,21.918,15.03,32.89c1.597,3.51,3.192,7.021,4.784,10.533c0.743,1.638,1.376,3.41,2.256,4.981
											c0.038,0.068,0.066,0.145,0.098,0.217C120.867,459.721,122.16,458.959,121.766,458.086L121.766,458.086z"/>
									</g>
								</g>
								<g>
									<g>
										<g>
											<path style="fill:#D4A5CF;" d="M77.503,363.131c-9.247-0.49-18.495-0.981-27.742-1.471
												c-1.306-0.069-2.613-0.139-3.92-0.208c-0.965-0.051-0.962,1.449,0,1.5c9.247,0.49,18.495,0.981,27.742,1.471
												c1.307,0.069,2.613,0.139,3.92,0.208C78.468,364.682,78.465,363.182,77.503,363.131L77.503,363.131z"/>
										</g>
									</g>
									<g>
										<g>
											<path style="fill:#D4A5CF;" d="M109.473,432.266c-10.415-1.123-20.83-2.246-31.245-3.369
												c-1.454-0.157-2.907-0.313-4.361-0.47c-0.959-0.103-0.951,1.397,0,1.5c10.415,1.123,20.83,2.246,31.246,3.369
												c1.454,0.157,2.907,0.313,4.361,0.47C110.431,433.87,110.424,432.369,109.473,432.266L109.473,432.266z"/>
										</g>
									</g>
								</g>
								<g>
									<g>
										<path style="fill:#D4A5CF;" d="M111.208,357.047c-2.099,4.517-4.198,9.034-6.297,13.551
											c-3.329,7.164-6.658,14.328-9.987,21.492c-0.773,1.664-1.547,3.328-2.32,4.992c-0.404,0.87,0.888,1.633,1.295,0.757
											c2.099-4.517,4.198-9.034,6.297-13.551c3.329-7.164,6.658-14.328,9.987-21.492c0.773-1.664,1.546-3.328,2.32-4.992
											C112.908,356.934,111.615,356.171,111.208,357.047L111.208,357.047z"/>
									</g>
								</g>
							</g>
							<path style="fill:none;stroke:#D4A5CF;stroke-miterlimit:10;" d="M66.756,311.761c3.461,5.092,10.157,1.022,6.435-4.2
								C69.731,302.469,63.035,306.539,66.756,311.761z"/>
							<path style="fill:none;stroke:#D4A5CF;stroke-miterlimit:10;" d="M65.62,323.551c-0.042,2.707,4.396,2.707,4.354,0
								C70.016,320.843,65.578,320.844,65.62,323.551z"/>
							<path style="fill:none;stroke:#D4A5CF;stroke-miterlimit:10;" d="M49.837,377.378c-0.081,5.26,8.542,5.26,8.46,0
								C58.378,372.117,49.755,372.117,49.837,377.378z"/>
						</g>
						<g>
							<g>
								<path style="fill:none;stroke:#D4A5CF;stroke-miterlimit:10;" d="M248.66,362.121c34.027-30.73-15.594-65.324-34.333-25.374
									c-3.414,10.526,2.916,19.289-18.016,24.021c-20.932,4.733-19.488,15.052-18.495,34.503
									c0.993,19.451-11.171,10.408-24.061,24.604c-10.214,11.249-0.798,25.934,3.552,31.547l40.226,6.313
									c18.076-6.195,16.838-26.892,17.165-41.362c0.831-14.358,20.111-4.758,31.133-21.57
									C256.852,377.989,238.122,368.197,248.66,362.121z"/>
							</g>
							<g>
								<g>
									<g>
										<path style="fill:#D4A5CF;" d="M165.611,452.757c2.192-3.31,4.391-6.616,6.59-9.921
											c5.391-8.1,10.794-16.192,16.211-24.275c6.963-10.39,13.948-20.766,20.971-31.117
											c6.765-9.972,13.559-19.925,20.446-29.813c4.871-6.995,9.734-14.018,14.919-20.786c0.383-0.5,0.769-0.996,1.16-1.489
											c0.593-0.749-0.461-1.817-1.061-1.061c-4.881,6.161-9.365,12.65-13.872,19.085c-6.773,9.667-13.438,19.409-20.075,29.169
											c-7.103,10.445-14.164,20.919-21.202,31.408c-5.749,8.567-11.481,17.145-17.2,25.733
											c-1.834,2.754-3.666,5.509-5.497,8.265c-0.844,1.272-1.852,2.531-2.573,3.878c-0.031,0.058-0.075,0.113-0.111,0.168
											C163.781,452.807,165.08,453.559,165.611,452.757L165.611,452.757z"/>
									</g>
								</g>
								<g>
									<g>
										<g>
											<path style="fill:#D4A5CF;" d="M214.598,379.414c7.847,0.847,15.693,1.694,23.54,2.542
												c1.119,0.121,2.238,0.242,3.356,0.362c0.958,0.103,0.951-1.397,0-1.5c-7.847-0.847-15.693-1.694-23.54-2.542
												c-1.119-0.121-2.238-0.242-3.356-0.362C213.64,377.811,213.647,379.312,214.598,379.414L214.598,379.414z"/>
										</g>
									</g>
									<g>
										<g>
											<path style="fill:#D4A5CF;" d="M178.243,433.283c8.91,0.474,17.819,0.948,26.728,1.421
												c1.261,0.067,2.523,0.134,3.785,0.201c0.965,0.051,0.962-1.449,0-1.5c-8.91-0.474-17.819-0.948-26.728-1.421
												c-1.261-0.067-2.523-0.134-3.785-0.201C177.278,431.732,177.281,433.232,178.243,433.283L178.243,433.283z"/>
										</g>
									</g>
								</g>
								<g>
									<g>
										<path style="fill:#D4A5CF;" d="M185.822,368.741c2.977,10.573,5.954,21.145,8.931,31.718
											c0.426,1.513,0.852,3.026,1.278,4.539c0.261,0.928,1.709,0.534,1.446-0.399c-2.977-10.573-5.954-21.145-8.931-31.718
											c-0.426-1.513-0.852-3.026-1.278-4.539C187.007,367.415,185.559,367.809,185.822,368.741L185.822,368.741z"/>
									</g>
								</g>
							</g>
							<path style="fill:none;stroke:#D4A5CF;stroke-miterlimit:10;" d="M230.758,336.232c-3.609,3.817-8.694-0.524-4.847-4.415
								C229.52,328,234.605,332.342,230.758,336.232z"/>
							<path style="fill:none;stroke:#D4A5CF;stroke-miterlimit:10;" d="M236.059,393.805c-0.649,4.442-7.912,3.265-7.125-1.154
								C229.582,388.21,236.846,389.386,236.059,393.805z"/>
						</g>
					</g>
				</g>
			</g>
			<g>
				<polyline style="fill:none;stroke:#D4A5CF;stroke-linecap:round;stroke-miterlimit:10;" points="75.402,194.824 
					199.297,327.993 240.089,253.668 273.492,332.387 343.784,265.231 409.449,362.19 478.898,192.561 565.905,224.422 
					634.889,128.057 666.876,155.337 701.192,101.702 				"/>
				<g>
					<path style="fill:#D4A5CF;" d="M202.786,326.77c0,2.204-1.787,3.991-3.991,3.991c-2.204,0-3.991-1.787-3.991-3.991
						c0-2.204,1.787-3.991,3.991-3.991C200.999,322.779,202.786,324.566,202.786,326.77z"/>
					<path style="fill:#D4A5CF;" d="M78.276,193.318c0,2.204-1.787,3.991-3.991,3.991c-2.204,0-3.991-1.787-3.991-3.991
						s1.787-3.991,3.991-3.991C76.489,189.327,78.276,191.114,78.276,193.318z"/>
					<path style="fill:#D4A5CF;" d="M278.069,332.063c0,2.204-1.787,3.991-3.991,3.991c-2.204,0-3.991-1.787-3.991-3.991
						c0-2.204,1.787-3.991,3.991-3.991C276.282,328.072,278.069,329.858,278.069,332.063z"/>
					<path style="fill:#D4A5CF;" d="M413.44,362.19c0,2.204-1.787,3.991-3.991,3.991c-2.204,0-3.991-1.787-3.991-3.991
						c0-2.204,1.787-3.991,3.991-3.991C411.653,358.199,413.44,359.985,413.44,362.19z"/>
					<path style="fill:#D4A5CF;" d="M482.888,193.22c0,2.204-1.787,3.991-3.991,3.991c-2.204,0-3.991-1.787-3.991-3.991
						c0-2.204,1.787-3.991,3.991-3.991C481.102,189.229,482.888,191.016,482.888,193.22z"/>
					<path style="fill:#D4A5CF;" d="M569.896,224.047c0,2.204-1.787,3.991-3.991,3.991s-3.991-1.787-3.991-3.991
						c0-2.204,1.787-3.991,3.991-3.991S569.896,221.843,569.896,224.047z"/>
					<path style="fill:#D4A5CF;" d="M638.638,127.45c0,2.204-1.787,3.991-3.991,3.991c-2.204,0-3.991-1.787-3.991-3.991
						s1.787-3.991,3.991-3.991C636.852,123.459,638.638,125.246,638.638,127.45z"/>
					<path style="fill:#D4A5CF;" d="M670.708,155.337c0,2.204-1.787,3.991-3.991,3.991s-3.991-1.787-3.991-3.991
						c0-2.204,1.787-3.991,3.991-3.991S670.708,153.133,670.708,155.337z"/>
					<polygon style="fill:#D4A5CF;" points="694.812,103.935 701.32,107.578 705.931,94.671 					"/>
				</g>
			</g>
			<g>
				<g>
					<g>
						<g>
							<path style="fill-rule:evenodd;clip-rule:evenodd;fill:none;stroke:#D4A5CF;stroke-miterlimit:10;" d="M112.202,145.117
								c1.356,0.707,2.593,1.584,3.69,2.599l3.943-1.404l3.705,5.849l-2.953,2.966c0.45,1.425,0.715,2.919,0.774,4.447l3.779,1.795
								l-1.516,6.756l-4.183,0.009c-0.706,1.356-1.585,2.594-2.6,3.69l1.403,3.943l-5.848,3.705l-2.966-2.952
								c-1.425,0.449-2.919,0.714-4.447,0.774l-1.794,3.779l-6.757-1.515l-0.009-4.183c-1.357-0.706-2.593-1.584-3.69-2.6
								l-3.943,1.404l-3.705-5.849l2.953-2.966c-0.449-1.425-0.714-2.918-0.774-4.447l-3.778-1.795l1.515-6.756l4.183-0.009
								c0.706-1.357,1.585-2.594,2.6-3.691l-1.404-3.943l5.848-3.706l2.966,2.953c1.425-0.45,2.918-0.715,4.447-0.774l1.794-3.778
								l6.756,1.515L112.202,145.117L112.202,145.117z M106.245,153.067c-4.002-0.898-7.975,1.619-8.873,5.622
								c-0.898,4.003,1.62,7.975,5.622,8.873c4.003,0.898,7.975-1.619,8.873-5.622C112.765,157.938,110.248,153.965,106.245,153.067
								z"/>
						</g>
					</g>
				</g>
				<g>
					<g>
						<g>
							<path style="fill-rule:evenodd;clip-rule:evenodd;fill:#D4A5CF;" d="M559.337,126.661c1.063,0.554,2.034,1.243,2.894,2.039
								l3.092-1.101l2.906,4.588l-2.316,2.326c0.352,1.118,0.561,2.289,0.607,3.488l2.964,1.408l-1.189,5.299l-3.281,0.007
								c-0.554,1.064-1.243,2.034-2.039,2.894l1.101,3.092l-4.587,2.906l-2.326-2.316c-1.118,0.353-2.289,0.56-3.488,0.607
								l-1.407,2.964l-5.299-1.188l-0.007-3.281c-1.064-0.554-2.034-1.243-2.894-2.039l-3.093,1.101l-2.906-4.588l2.317-2.326
								c-0.353-1.118-0.56-2.289-0.608-3.488l-2.963-1.408l1.188-5.299l3.281-0.007c0.554-1.064,1.243-2.035,2.039-2.895
								l-1.101-3.092l4.587-2.906l2.326,2.316c1.117-0.353,2.289-0.561,3.488-0.607l1.407-2.964l5.299,1.188L559.337,126.661
								L559.337,126.661z M554.665,132.896c-3.139-0.704-6.255,1.27-6.959,4.409c-0.704,3.139,1.27,6.255,4.409,6.96
								c3.14,0.704,6.255-1.27,6.96-4.409C559.779,136.716,557.805,133.6,554.665,132.896z"/>
						</g>
					</g>
				</g>
				<g>
					<g>
						<g>
							<path style="fill-rule:evenodd;clip-rule:evenodd;fill:none;stroke:#D4A5CF;stroke-miterlimit:10;" d="M650.281,219.598
								c1.45,0.755,2.773,1.694,3.946,2.78l4.216-1.501l3.963,6.255l-3.157,3.172c0.481,1.524,0.765,3.121,0.828,4.756l4.041,1.919
								l-1.621,7.225l-4.473,0.01c-0.755,1.451-1.695,2.774-2.781,3.946l1.501,4.217l-6.254,3.962l-3.172-3.157
								c-1.524,0.481-3.121,0.764-4.756,0.827l-1.919,4.042l-7.226-1.62l-0.01-4.474c-1.451-0.755-2.773-1.694-3.946-2.78
								l-4.217,1.501l-3.963-6.255l3.159-3.171c-0.481-1.524-0.764-3.121-0.828-4.756l-4.04-1.919l1.62-7.225l4.473-0.009
								c0.755-1.451,1.694-2.774,2.78-3.947l-1.501-4.216l6.254-3.963l3.172,3.158c1.524-0.481,3.121-0.764,4.756-0.828l1.919-4.041
								l7.225,1.62L650.281,219.598L650.281,219.598z M643.911,228.099c-4.28-0.96-8.529,1.731-9.489,6.012
								c-0.96,4.28,1.732,8.529,6.012,9.489c4.281,0.96,8.529-1.732,9.489-6.012C650.883,233.307,648.192,229.059,643.911,228.099z"
								/>
						</g>
					</g>
				</g>
				<g>
					<g>
						<g>
							<path style="fill-rule:evenodd;clip-rule:evenodd;fill:none;stroke:#D4A5CF;stroke-miterlimit:10;" d="M583.333,93.443
								c1.076,0.561,2.059,1.258,2.93,2.064l3.131-1.115l2.942,4.644l-2.344,2.355c0.357,1.131,0.568,2.318,0.615,3.531l3.001,1.425
								l-1.204,5.365l-3.321,0.007c-0.561,1.077-1.258,2.06-2.065,2.93l1.114,3.131l-4.644,2.942l-2.355-2.344
								c-1.131,0.357-2.318,0.567-3.531,0.614l-1.425,3.001l-5.365-1.203l-0.007-3.322c-1.077-0.561-2.059-1.258-2.93-2.064
								l-3.131,1.115l-2.942-4.644l2.345-2.355c-0.357-1.131-0.567-2.317-0.615-3.531l-3-1.425l1.203-5.365l3.322-0.007
								c0.56-1.077,1.258-2.06,2.064-2.931l-1.115-3.131l4.644-2.942l2.355,2.345c1.131-0.357,2.318-0.568,3.532-0.615l1.425-3
								l5.364,1.203L583.333,93.443L583.333,93.443z M578.603,99.756c-3.178-0.713-6.333,1.285-7.046,4.464
								c-0.713,3.178,1.286,6.333,4.464,7.046c3.179,0.713,6.333-1.286,7.046-4.464C583.78,103.623,581.782,100.469,578.603,99.756z
								"/>
						</g>
					</g>
				</g>
			</g>
		</g>
		<g>
			<g>
				<g>
					<path style="fill:#FFFFFF;stroke:#010001;stroke-miterlimit:10;" d="M539.705,294.466H223.671
						c-6.559,0-11.875-5.317-11.875-11.875V91.858c0-6.559,5.317-11.875,11.875-11.875h316.034c6.558,0,11.875,5.317,11.875,11.875
						v190.733C551.58,289.15,546.263,294.466,539.705,294.466z"/>
					<path style="fill:#BFBCC0;stroke:#010001;stroke-miterlimit:10;" d="M539.705,79.983H223.671
						c-6.559,0-11.875,5.317-11.875,11.875v5.935H551.58v-5.935C551.58,85.3,546.263,79.983,539.705,79.983z"/>
					<g>
						<circle style="fill:none;stroke:#010001;stroke-miterlimit:10;" cx="224.574" cy="89.162" r="4.195"/>
						<path style="fill:none;stroke:#010001;stroke-miterlimit:10;" d="M244.589,89.162c0,2.317-1.878,4.195-4.195,4.195
							s-4.195-1.878-4.195-4.195c0-2.317,1.878-4.195,4.195-4.195S244.589,86.846,244.589,89.162z"/>
						<path style="fill:none;stroke:#010001;stroke-miterlimit:10;" d="M260.411,89.162c0,2.317-1.878,4.195-4.194,4.195
							c-2.317,0-4.195-1.878-4.195-4.195c0-2.317,1.878-4.195,4.195-4.195C258.533,84.968,260.411,86.846,260.411,89.162z"/>
					</g>
				</g>
				<g>
					<g>
						<g>
							<path style="fill:#BFBCC0;" d="M371.042,250.946H252.268c-1.208,0-2.188-0.979-2.188-2.188l0,0
								c0-1.208,0.979-2.188,2.188-2.188h118.774c1.208,0,2.188,0.979,2.188,2.188l0,0
								C373.229,249.967,372.25,250.946,371.042,250.946z"/>
							<path style="fill:#BFBCC0;" d="M341.597,261.86h-89.329c-1.208,0-2.188-0.979-2.188-2.188l0,0
								c0-1.208,0.979-2.188,2.188-2.188h89.329c1.208,0,2.188,0.979,2.188,2.188l0,0C343.784,260.88,342.805,261.86,341.597,261.86
								z"/>
							<path style="fill:#BFBCC0;" d="M303.871,272.774h-51.603c-1.208,0-2.188-0.979-2.188-2.188l0,0
								c0-1.208,0.979-2.188,2.188-2.188h51.603c1.208,0,2.188,0.979,2.188,2.188l0,0
								C306.058,271.794,305.079,272.774,303.871,272.774z"/>
						</g>
						<g>
							
								<line style="fill:none;stroke:#010001;stroke-width:2;stroke-linecap:round;stroke-miterlimit:10;" x1="385.306" y1="248.121" x2="493.252" y2="248.121"/>
							
								<line style="fill:none;stroke:#010001;stroke-width:2;stroke-linecap:round;stroke-miterlimit:10;" x1="385.306" y1="255.963" x2="453.465" y2="255.963"/>
							
								<line style="fill:none;stroke:#010001;stroke-width:2;stroke-linecap:round;stroke-miterlimit:10;" x1="385.306" y1="263.806" x2="436.238" y2="263.806"/>
							
								<line style="fill:none;stroke:#010001;stroke-width:2;stroke-linecap:round;stroke-miterlimit:10;" x1="385.306" y1="271.647" x2="467.224" y2="271.647"/>
						</g>
					</g>
					<g>
						<g>
							<path style="fill:#F19101;" d="M303.21,238.906l19.382-28.037c3.943-5.703,11.793-7.072,17.433-3.038l2.723,1.947
								c6.764,4.837,16.279,1.786,18.968-6.082l9.412-27.534c3.828-11.199,19.666-11.199,23.494,0l4.554,13.324
								c3.653,10.688,18.521,11.34,23.097,1.014l3.949-8.913c3.94-8.891,16.11-10.005,21.598-1.977v0
								c5.768,8.437,18.69,6.68,21.995-2.991l4.403-12.882c4.045-11.834,21.072-10.936,23.851,1.257l16.843,73.913
								C514.913,238.906,303.801,238.316,303.21,238.906z"/>
						</g>
						<g>
							<path style="fill:#6348ED;" d="M501.744,212.357c-3.687-7.314-13.86-8.671-18.937-2.244
								c-0.174,0.221-0.342,0.449-0.503,0.684c0,0-5.527,10.109-8.493,12.424c-7.283,5.684-16.305,6.932-26.081-6.134l-6.112-7.599
								c-4.062-5.05-11.377-6.014-16.608-2.188l-7.073,5.173c-3.323,2.43-7.861,7.142-11.357,5.236
								c-3.87-2.11-14.232-10.409-14.232-10.409c-5.231-3.826-12.546-2.862-16.608,2.188l-6.112,7.599
								c-5.904,7.341-17.558,5.44-20.823-3.396l-7.543-20.413c-3.955-10.703-19.158-10.516-22.848,0.281l-15.158,44.348
								l-1.173,1.293c0,0,0.255-0.001,0.732-0.003l-0.15,0.438c0-0.87,212.612-0.435,212.612-0.435L501.744,212.357z"/>
						</g>
						
							<line style="fill:none;stroke:#010001;stroke-linecap:round;stroke-miterlimit:10;" x1="261.771" y1="239.612" x2="530.875" y2="239.612"/>
						<g>
							<g>
								<g>
									
										<line style="fill:none;stroke:#010001;stroke-width:0.4763;stroke-miterlimit:10;" x1="328.518" y1="132.047" x2="328.518" y2="133.952"/>
									
										<line style="fill:none;stroke:#010001;stroke-width:0.4763;stroke-miterlimit:10;stroke-dasharray:3.8534,3.8534;" x1="328.518" y1="137.806" x2="328.518" y2="236.067"/>
									
										<line style="fill:none;stroke:#010001;stroke-width:0.4763;stroke-miterlimit:10;" x1="328.518" y1="237.994" x2="328.518" y2="239.899"/>
								</g>
							</g>
							
								<line style="fill:none;stroke:#010001;stroke-width:0.4763;stroke-miterlimit:10;stroke-dasharray:3.8102;" x1="381.595" y1="138.527" x2="381.595" y2="242.309"/>
							
								<line style="fill:none;stroke:#010001;stroke-width:0.4763;stroke-miterlimit:10;stroke-dasharray:3.8102;" x1="486.914" y1="123.276" x2="486.914" y2="240.875"/>
							
								<line style="fill:none;stroke:#010001;stroke-width:0.4763;stroke-miterlimit:10;stroke-dasharray:3.8102;" x1="434.869" y1="160.246" x2="434.869" y2="239.899"/>
						</g>
						<path style="fill:#BFBCC0;" d="M471.683,157.157h-37.701c-0.754,0-1.366-0.612-1.366-1.366l0,0
							c0-0.754,0.612-1.366,1.366-1.366h37.701c0.755,0,1.366,0.612,1.366,1.366l0,0
							C473.049,156.546,472.437,157.157,471.683,157.157z"/>
						<path style="fill:#BFBCC0;" d="M523.48,120.544h-37.701c-0.755,0-1.366-0.611-1.366-1.366l0,0
							c0-0.755,0.612-1.366,1.366-1.366h37.701c0.755,0,1.366,0.612,1.366,1.366l0,0
							C524.846,119.932,524.234,120.544,523.48,120.544z"/>
						<path style="fill:#BFBCC0;" d="M511.771,115.1h-26.466c-0.493,0-0.892-0.399-0.892-0.892v-0.948
							c0-0.493,0.399-0.892,0.892-0.892h26.466c0.493,0,0.892,0.399,0.892,0.892v0.948C512.663,114.7,512.263,115.1,511.771,115.1z"
							/>
						<path style="fill:#BFBCC0;" d="M418.614,135.668h-37.702c-0.754,0-1.366-0.612-1.366-1.366l0,0
							c0-0.754,0.612-1.366,1.366-1.366h37.702c0.754,0,1.366,0.611,1.366,1.366l0,0
							C419.98,135.056,419.368,135.668,418.614,135.668z"/>
						<path style="fill:#BFBCC0;" d="M365.946,129.423h-37.702c-0.754,0-1.366-0.611-1.366-1.366l0,0
							c0-0.754,0.612-1.366,1.366-1.366h37.702c0.754,0,1.366,0.612,1.366,1.366l0,0
							C367.312,128.811,366.701,129.423,365.946,129.423z"/>
						<path style="fill:#BFBCC0;" d="M348.142,123.276h-20.476c-0.435,0-0.788-0.353-0.788-0.788v-1.156
							c0-0.435,0.353-0.788,0.788-0.788h20.475c0.435,0,0.788,0.353,0.788,0.788v1.156
							C348.931,122.923,348.578,123.276,348.142,123.276z"/>
						<path style="fill:#BFBCC0;" d="M460.402,151.693h-26.888c-0.496,0-0.899-0.403-0.899-0.899v-0.934
							c0-0.497,0.402-0.899,0.899-0.899h26.888c0.497,0,0.899,0.403,0.899,0.899v0.934
							C461.301,151.291,460.899,151.693,460.402,151.693z"/>
						<g>
							<g>
								<g>
									<path style="fill:#F19101;" d="M279.92,152.645l36.614-5.594c3.069,20.086-10.934,39.139-31.019,42.208
										c-20.086,3.069-39.139-10.933-42.208-31.019c-3.069-20.086,10.933-39.139,31.019-42.208
										c3.198-0.489,6.446-0.556,9.661-0.201L279.92,152.645z"/>
								</g>
							</g>
							<g>
								<g>
									<path style="fill:#6348ED;" d="M291.8,115.948l-4.445,28.382l27.86-5.232C315.215,139.098,311.118,123.191,291.8,115.948z"
										/>
								</g>
							</g>
						</g>
					</g>
				</g>
			</g>
			<g>
				<g>
					<g>
						<path style="fill:#F19101;stroke:#010001;stroke-linecap:round;stroke-miterlimit:10;" d="M588.891,220.056
							c0,0-18.83,18.097-26.956,29.413c-7.498,10.442-16.634,1.783-16.634,1.783l-14.356,20.129c0,0,10.853,11.563,27.72,16.577
							c16.867,5.014,19.668-0.477,19.668-0.477L588.891,220.056z"/>
						<g>
							<g>
								<g>
									<path style="fill:#FFFFFF;" d="M551.58,270.025c0.599,1.272,1.198,2.544,1.797,3.816c0.114,0.242,0.424,0.449,0.672,0.517
										c0.269,0.074,0.628,0.041,0.867-0.113c0.549-0.354,0.673-0.968,0.404-1.539c-0.599-1.272-1.198-2.544-1.797-3.816
										c-0.114-0.242-0.424-0.448-0.672-0.517c-0.269-0.074-0.628-0.041-0.867,0.113
										C551.434,268.84,551.311,269.453,551.58,270.025L551.58,270.025z"/>
								</g>
							</g>
							<g>
								<g>
									<path style="fill:#FFFFFF;" d="M564.974,274.929c0.713-1.272,1.483-2.511,2.308-3.714c0.334-0.487,0.107-1.269-0.404-1.539
										c-0.572-0.302-1.183-0.116-1.539,0.404c-0.825,1.203-1.595,2.442-2.308,3.714c-0.288,0.513-0.14,1.252,0.404,1.539
										C563.966,275.613,564.667,275.478,564.974,274.929L564.974,274.929z"/>
								</g>
							</g>
							<g>
								<g>
									<path style="fill:#FFFFFF;" d="M564.936,256.822c-0.111,1.445-0.163,2.893-0.156,4.342
										c0.003,0.588,0.516,1.152,1.125,1.125c0.607-0.027,1.128-0.494,1.125-1.125c-0.007-1.449,0.045-2.897,0.156-4.342
										c0.045-0.588-0.55-1.151-1.125-1.125C565.413,255.726,564.985,256.192,564.936,256.822L564.936,256.822z"/>
								</g>
							</g>
							<g>
								<g>
									<path style="fill:#FFFFFF;" d="M572.483,239.035c0.31,2.524,0.729,5.03,1.278,7.513c0.127,0.575,0.826,0.966,1.384,0.786
										c0.604-0.196,0.922-0.768,0.786-1.384c-0.505-2.285-0.92-4.653-1.197-6.915c-0.071-0.582-0.466-1.154-1.125-1.125
										C573.06,237.935,572.406,238.41,572.483,239.035L572.483,239.035z"/>
								</g>
							</g>
						</g>
					</g>
					<g>
						<path style="fill:#FFFFFF;stroke:#010001;stroke-width:0.75;stroke-miterlimit:10;" d="M528.513,247.333
							c0,0-5.012-2.721-5.952-0.927c-0.94,1.793,2.677,3.332,4.216,3.9C528.317,250.873,532.488,249.735,528.513,247.333z"/>
						<path style="fill:#010001;" d="M529.603,266.959l-7.872-30.885c-0.865-3.392,1.627-6.714,5.125-6.834l21.979-0.755
							c2.507-0.086,4.753,1.54,5.453,3.949l9.185,31.579c1.019,3.503-1.603,7.005-5.251,7.015l-23.292,0.061
							C532.419,271.095,530.223,269.393,529.603,266.959z"/>
						<g>
							<g>
								<path style="fill:#FFFFFF;" d="M532.466,261.939c0,0-0.231,0.783-1.094,0.829c-0.863,0.046-3.184-0.593-4.048-1.457
									c-0.864-0.864-0.656-1.686-0.328-1.72c0,0-1.074-0.349-1.234-1.379c-0.16-1.03,0.665-1.463,1.438-1.54
									c0,0-1.026,0.425-2.027-0.44c-1.001-0.865-0.51-2.167,1.149-2.385c0,0-2.176,0.469-2.4-1.118
									c-0.224-1.588,1.074-2.106,2.017-2.271c0.944-0.166,3.217-0.296,3.849,0.103c0.632,0.398,0.719,0.947,0.412,1.43
									c-0.308,0.484-1.227,1.238-1.227,1.238s1.869,0.243,2.33,0.611c0.461,0.368,0.768,0.574,0.553,1.169
									c-0.215,0.595-1.716,1.268-1.716,1.268s-0.273,0.467,0.392,0.549c0.665,0.083,2.242,0.789,2.351,1.434
									c0.109,0.645-0.205,1.202-0.497,1.381c-0.292,0.179-0.653,0.201-0.292,0.672
									C532.452,260.784,532.839,261.399,532.466,261.939z"/>
							</g>
							<g>
								<path style="fill:none;stroke:#010001;stroke-width:0.75;stroke-linecap:round;stroke-miterlimit:10;" d="M527.198,259.47
									c0,0-1.168,0.693,0.126,1.841c1.294,1.148,3.631,1.527,4.559,1.319c0.927-0.207,0.849-2.087-0.094-2.726
									C530.847,259.264,527.66,259.05,527.198,259.47z"/>
								<path style="fill:none;stroke:#010001;stroke-width:0.75;stroke-linecap:round;stroke-miterlimit:10;" d="M526.873,259.542
									c0,0-1.087-0.324-1.123-1.449s1.098-1.768,3.444-1.547c2.346,0.221,3.471,0.882,3.561,1.927
									c0.09,1.045-0.627,1.608-0.966,1.431"/>
								<path style="fill:none;stroke:#010001;stroke-width:0.75;stroke-linecap:round;stroke-miterlimit:10;" d="M526.248,256.868
									c0,0-1.632-0.259-1.591-1.689c0.041-1.43,2.734-1.818,4.181-1.948c1.447-0.13,3.281,0.982,2.85,2.036
									c-0.432,1.053-1.745,1.113-2.211,1.27"/>
								<path style="fill:none;stroke:#010001;stroke-width:0.75;stroke-linecap:round;stroke-miterlimit:10;" d="M525.534,254.014
									c0,0-1.589-0.185-1.644-1.715c-0.055-1.53,2.851-2.223,5.086-2.111c2.235,0.112,0.833,2.8-0.006,3.041"/>
							</g>
						</g>
					</g>
				</g>
				<g>
					<path style="fill:#6348ED;" d="M603.503,313.632l9.238,0.517c0,0,2.599-8.7-0.296-19.196
						c-2.895-10.495-36.85-9.925-36.85-9.925s-0.727,20.154-0.471,20.312C575.38,305.499,603.503,313.632,603.503,313.632z"/>
					<g>
						<path style="fill:#F19101;stroke:#010001;stroke-linecap:round;stroke-miterlimit:10;" d="M618.956,290.591l0.271,7.892
							l-46.842-9.487l-3.047-0.82c0,0,1.773-35.589,7.28-50.248c5.507-14.66,13.146-21.074,18.968-21.942
							c5.822-0.868,19.605,13.518,19.605,13.518l4.474,46.62L618.956,290.591z"/>
						<g>
							<g>
								<g>
									<path style="fill:#FFFFFF;" d="M581.885,237.019c1.001-1.545,2.002-3.09,3.003-4.635c0.321-0.495,0.117-1.264-0.404-1.539
										c-0.56-0.296-1.197-0.125-1.539,0.404c-1.001,1.545-2.002,3.09-3.003,4.635c-0.321,0.495-0.117,1.264,0.404,1.539
										C580.906,237.718,581.543,237.547,581.885,237.019L581.885,237.019z"/>
								</g>
							</g>
							<g>
								<g>
									<path style="fill:#FFFFFF;" d="M585.927,242.381c-0.18,1.526-0.36,3.052-0.54,4.577c-0.032,0.267,0.148,0.614,0.329,0.796
										c0.195,0.195,0.515,0.342,0.796,0.329c0.291-0.013,0.593-0.109,0.795-0.329c0.215-0.234,0.292-0.482,0.33-0.796
										c0.18-1.526,0.36-3.052,0.54-4.577c0.031-0.267-0.148-0.614-0.329-0.796c-0.195-0.195-0.515-0.342-0.796-0.329
										c-0.291,0.013-0.593,0.109-0.795,0.329C586.042,241.82,585.964,242.068,585.927,242.381L585.927,242.381z"/>
								</g>
							</g>
							<g>
								<g>
									<path style="fill:#FFFFFF;" d="M594.575,231.507c0.153,1.368,0.306,2.736,0.459,4.104c0.035,0.307,0.103,0.569,0.33,0.796
										c0.195,0.195,0.515,0.342,0.795,0.329c0.553-0.025,1.195-0.499,1.125-1.125c-0.153-1.368-0.306-2.736-0.459-4.104
										c-0.034-0.307-0.103-0.569-0.329-0.796c-0.195-0.195-0.515-0.342-0.796-0.329
										C595.146,230.407,594.504,230.881,594.575,231.507L594.575,231.507z"/>
								</g>
							</g>
							<g>
								<g>
									<path style="fill:#FFFFFF;" d="M602.588,250.55c0.766-1.674,1.588-3.323,2.464-4.942c0.28-0.517,0.146-1.249-0.404-1.539
										c-0.524-0.277-1.24-0.149-1.539,0.404c-0.876,1.62-1.698,3.268-2.464,4.942c-0.244,0.534-0.17,1.236,0.404,1.539
										C601.543,251.215,602.327,251.122,602.588,250.55L602.588,250.55z"/>
								</g>
							</g>
							<g>
								<g>
									<path style="fill:#FFFFFF;" d="M574.168,273.134c0.931-0.964,1.906-1.884,2.921-2.759c0.209-0.18,0.33-0.529,0.33-0.796
										c0-0.276-0.122-0.605-0.33-0.796c-0.214-0.197-0.496-0.343-0.795-0.329c-0.311,0.014-0.559,0.126-0.796,0.329
										c-1.015,0.875-1.99,1.795-2.921,2.759c-0.409,0.424-0.453,1.175,0,1.591C573.02,273.54,573.731,273.586,574.168,273.134
										L574.168,273.134z"/>
								</g>
							</g>
							<g>
								<g>
									<path style="fill:#FFFFFF;" d="M577.322,279.142c0.479,1.36,0.959,2.72,1.438,4.081c0.195,0.554,0.777,0.982,1.384,0.786
										c0.547-0.177,0.995-0.79,0.786-1.384c-0.479-1.36-0.959-2.72-1.438-4.081c-0.195-0.554-0.777-0.982-1.384-0.786
										C577.561,277.935,577.113,278.548,577.322,279.142L577.322,279.142z"/>
								</g>
							</g>
							<g>
								<g>
									<path style="fill:#FFFFFF;" d="M592.796,289.77c1.367-1.628,2.819-3.182,4.348-4.659c0.424-0.41,0.442-1.185,0-1.591
										c-0.456-0.418-1.138-0.437-1.591,0c-1.529,1.476-2.981,3.031-4.348,4.659c-0.378,0.45-0.474,1.156,0,1.591
										C591.622,290.153,592.392,290.251,592.796,289.77L592.796,289.77z"/>
								</g>
							</g>
							<g>
								<g>
									<path style="fill:#FFFFFF;" d="M603.203,288.978c0.046,1.261,0.135,2.519,0.268,3.774c0.032,0.306,0.104,0.57,0.329,0.796
										c0.195,0.195,0.515,0.342,0.796,0.329c0.557-0.025,1.191-0.498,1.125-1.125c-0.132-1.255-0.222-2.513-0.268-3.774
										c-0.021-0.587-0.502-1.153-1.125-1.125C603.737,287.879,603.18,288.348,603.203,288.978L603.203,288.978z"/>
								</g>
							</g>
						</g>
					</g>
				</g>
				<g>
					<g>
						<path style="fill:#FFFFFF;" d="M571.343,258.63l9.353,8.51l3.024,2.427l7.772-10.215c0,0-5.768-1.894-8.584-5.273
							c-2.815-3.379-4.329-8.252-4.881-8.828c-0.552-0.576-3.107-1.63-5.252-2.272c-2.145-0.642-7.311-2.608-9.072-2.214
							c-1.76,0.394-0.967,1.974-0.465,2.437c0.502,0.463,4.346,1.888,4.346,1.888s1.365,0.688,0.607,0.852
							c-0.757,0.164-1.371,0.529-1.371,0.529s-0.475,1.12-0.835,1.379c-0.361,0.259-0.701,0.677-0.682,1.219
							c0.019,0.542-0.041,0.941-0.577,1.428c-0.536,0.488-0.663,2.175-0.663,2.175s-0.461,0.649-0.272,1.895
							c0.189,1.246,1.515,3.402,2.961,3.884c1.446,0.483,2.523,0.267,2.523,0.267l0.962-1.233L571.343,258.63z"/>
						<g>
							<path style="fill:none;stroke:#010001;stroke-width:0.75;stroke-linecap:round;stroke-miterlimit:10;" d="M569.711,245.71
								c0,0-6.996-1.705-7.063-3.756c-0.087-2.646,7.267,0.344,11.732,1.468c4.465,1.124,3.978,2.875,6.904,8.36
								c2.926,5.484,10.208,7.572,10.208,7.572l-7.772,10.215c0,0-9.756-7.691-11.664-10.092c-1.908-2.401-4.535-4.483-5.711-4.178"
								/>
							<path style="fill:none;stroke:#010001;stroke-width:0.75;stroke-linecap:round;stroke-miterlimit:10;" d="M569.852,257.313
								c0,0,0.014,2.044-1.654,1.449c-1.703-0.608-4.506-1.807-4.586-4.634c-0.092-3.281,4.285-1.448,4.285-1.448"/>
							<path style="fill:none;stroke:#010001;stroke-width:0.75;stroke-linecap:round;stroke-miterlimit:10;" d="M569.589,249.64
								c0,0-5.737-0.531-5.377,2.877"/>
							<path style="fill:none;stroke:#010001;stroke-width:0.75;stroke-linecap:round;stroke-miterlimit:10;" d="M570.975,247.919
								c0,0-4.032-0.926-4.888-0.167c-0.856,0.759-0.64,2.205-0.64,2.205"/>
							<path style="fill:none;stroke:#010001;stroke-width:0.75;stroke-linecap:round;stroke-miterlimit:10;" d="M566.579,247.48
								c0,0,0.333-2.935,6.606-1.188"/>
						</g>
					</g>
					<g>
						<g>
							<path style="fill:#F19101;" d="M616.336,262.796c-0.898-4.993-6.282-17.554-6.282-17.554l-10.38-28.454
								c0,0,20.242,3.21,36.276,31.723c16.034,28.513,2.158,45.669-10.516,46.855c-23.27,2.177-45.336-24.338-45.336-24.338
								l11.667-16.982l29.392,10.467"/>
						</g>
						<g>
							<path style="fill:#F19101;stroke:#010001;stroke-miterlimit:10;" d="M580.098,271.028c0,0,2.501,2.999,6.693,6.894
								l12.649-21.142l-7.675-2.733L580.098,271.028z"/>
							<g>
								<line style="fill:none;stroke:#010001;stroke-miterlimit:10;" x1="581.706" y1="268.687" x2="589.052" y2="274.143"/>
								<line style="fill:none;stroke:#010001;stroke-miterlimit:10;" x1="583.754" y1="265.651" x2="591.465" y2="270.11"/>
								<line style="fill:none;stroke:#010001;stroke-miterlimit:10;" x1="585.997" y1="262.442" x2="593.696" y2="266.38"/>
								<line style="fill:none;stroke:#010001;stroke-miterlimit:10;" x1="588.147" y1="259.312" x2="595.812" y2="262.844"/>
								<line style="fill:none;stroke:#010001;stroke-miterlimit:10;" x1="590.14" y1="256.411" x2="597.831" y2="259.468"/>
							</g>
						</g>
						<g>
							<path style="fill:none;stroke:#010001;stroke-linecap:round;stroke-miterlimit:10;" d="M599.674,216.788
								c0,0,20.242,3.21,36.276,31.723c16.034,28.513,2.158,45.669-10.516,46.855c-23.27,2.177-45.336-24.338-45.336-24.338
								l11.667-16.982l29.392,10.467"/>
							<path style="fill:none;stroke:#010001;stroke-linecap:round;stroke-miterlimit:10;" d="M610.054,245.242
								c0,0,5.384,12.561,6.282,17.554"/>
						</g>
						<g>
							<g>
								<g>
									<path style="fill:#FFFFFF;" d="M593.626,275.159c1.218,1.772,2.467,3.522,3.748,5.249c0.181,0.244,0.369,0.433,0.672,0.517
										c0.269,0.074,0.628,0.041,0.867-0.113c0.467-0.301,0.779-1.034,0.404-1.539c-1.281-1.727-2.53-3.477-3.748-5.249
										c-0.333-0.484-1.003-0.749-1.539-0.404C593.548,273.93,593.269,274.641,593.626,275.159L593.626,275.159z"/>
								</g>
							</g>
							<g>
								<g>
									<path style="fill:#FFFFFF;" d="M600.312,267.325c1.043,0.053,2.086,0.106,3.128,0.16c0.589,0.03,1.151-0.539,1.125-1.125
										c-0.028-0.635-0.494-1.093-1.125-1.125c-1.043-0.053-2.086-0.106-3.128-0.16c-0.589-0.03-1.151,0.539-1.125,1.125
										C599.216,266.835,599.681,267.293,600.312,267.325L600.312,267.325z"/>
								</g>
							</g>
							<g>
								<g>
									<path style="fill:#FFFFFF;" d="M605.392,275.772c1.319,0.657,2.672,1.248,4.048,1.777c0.257,0.099,0.639,0.02,0.867-0.113
										c0.233-0.137,0.456-0.404,0.517-0.672c0.066-0.288,0.051-0.611-0.113-0.867c-0.167-0.26-0.385-0.406-0.672-0.517
										c-0.428-0.165-0.854-0.336-1.277-0.514c0.09,0.038,0.179,0.076,0.269,0.113c-0.846-0.357-1.68-0.741-2.502-1.15
										c-0.526-0.262-1.242-0.158-1.539,0.403C604.719,274.742,604.829,275.492,605.392,275.772L605.392,275.772z"/>
								</g>
							</g>
							<g>
								<g>
									<path style="fill:#FFFFFF;" d="M608.777,287.134c1.359,0.996,2.719,1.992,4.079,2.988c0.221,0.162,0.614,0.183,0.867,0.113
										c0.261-0.072,0.544-0.274,0.672-0.517c0.309-0.586,0.105-1.167-0.404-1.539c-1.359-0.996-2.719-1.992-4.079-2.988
										c-0.221-0.162-0.614-0.183-0.867-0.113c-0.261,0.072-0.544,0.274-0.672,0.517
										C608.064,286.18,608.269,286.761,608.777,287.134L608.777,287.134z"/>
								</g>
							</g>
							<g>
								<g>
									<path style="fill:#FFFFFF;" d="M618.235,270.72c1.443-0.088,2.887-0.176,4.33-0.264c0.586-0.036,1.153-0.492,1.125-1.125
										c-0.026-0.579-0.496-1.163-1.125-1.125c-1.443,0.088-2.887,0.176-4.33,0.264c-0.586,0.036-1.153,0.492-1.125,1.125
										C617.136,270.173,617.606,270.758,618.235,270.72L618.235,270.72z"/>
								</g>
							</g>
							<g>
								<g>
									<path style="fill:#FFFFFF;" d="M620.791,281.117c1.408,0.457,2.816,0.913,4.224,1.37c0.56,0.182,1.253-0.212,1.384-0.786
										c0.141-0.617-0.186-1.189-0.786-1.384c-1.408-0.457-2.816-0.913-4.224-1.37c-0.56-0.182-1.253,0.212-1.384,0.786
										C619.865,280.35,620.192,280.923,620.791,281.117L620.791,281.117z"/>
								</g>
							</g>
							<g>
								<g>
									<path style="fill:#FFFFFF;" d="M627.184,291.3c1.127-0.5,2.253-1,3.38-1.499c0.241-0.107,0.45-0.43,0.517-0.672
										c0.074-0.269,0.041-0.628-0.113-0.867c-0.155-0.24-0.385-0.452-0.672-0.517c-0.313-0.071-0.575-0.016-0.867,0.113
										c-1.126,0.5-2.253,1-3.38,1.499c-0.241,0.107-0.45,0.43-0.517,0.672c-0.074,0.269-0.041,0.628,0.113,0.867
										c0.155,0.24,0.385,0.452,0.672,0.517C626.63,291.484,626.893,291.429,627.184,291.3L627.184,291.3z"/>
								</g>
							</g>
							<g>
								<g>
									<path style="fill:#FFFFFF;" d="M637.11,280.547c0.719-0.97,1.349-2.003,1.883-3.086c0.135-0.273,0.197-0.565,0.114-0.867
										c-0.072-0.261-0.274-0.544-0.517-0.672c-0.508-0.268-1.261-0.16-1.539,0.404c-0.534,1.083-1.164,2.116-1.883,3.086
										c-0.163,0.22-0.183,0.615-0.113,0.867c0.072,0.261,0.274,0.544,0.517,0.672c0.261,0.138,0.577,0.207,0.867,0.113
										C636.734,280.968,636.927,280.795,637.11,280.547L637.11,280.547z"/>
								</g>
							</g>
							<g>
								<g>
									<path style="fill:#FFFFFF;" d="M629.693,273.795c0.969-0.748,1.938-1.495,2.907-2.243c0.243-0.188,0.432-0.363,0.517-0.672
										c0.074-0.269,0.041-0.628-0.113-0.867c-0.155-0.24-0.385-0.452-0.672-0.517c-0.273-0.062-0.634-0.066-0.867,0.113
										c-0.969,0.748-1.938,1.495-2.907,2.243c-0.243,0.188-0.432,0.363-0.517,0.672c-0.074,0.269-0.041,0.628,0.113,0.867
										c0.155,0.24,0.385,0.452,0.672,0.517C629.099,273.97,629.46,273.974,629.693,273.795L629.693,273.795z"/>
								</g>
							</g>
							<g>
								<g>
									<path style="fill:#FFFFFF;" d="M625.311,258.804c0.171,0.75,0.321,1.505,0.445,2.264c0.032,0.194,0.062,0.387,0.091,0.581
										c0.013,0.09,0.026,0.179,0.039,0.269c0.036,0.245-0.026-0.208,0.008,0.06c0.05,0.389,0.095,0.779,0.133,1.169
										c0.03,0.306,0.105,0.571,0.33,0.796c0.195,0.195,0.515,0.342,0.795,0.329c0.56-0.025,1.187-0.498,1.125-1.125
										c-0.164-1.661-0.425-3.313-0.797-4.941c-0.131-0.574-0.823-0.967-1.384-0.786
										C625.495,257.614,625.17,258.188,625.311,258.804L625.311,258.804z"/>
								</g>
							</g>
							<g>
								<g>
									<path style="fill:#FFFFFF;" d="M636.03,261.045c0.484,1.366,0.892,2.758,1.222,4.17c0.134,0.574,0.821,0.968,1.384,0.786
										c0.599-0.194,0.929-0.769,0.786-1.384c-0.33-1.412-0.738-2.803-1.222-4.17c-0.196-0.553-0.777-0.982-1.384-0.786
										C636.269,259.838,635.819,260.451,636.03,261.045L636.03,261.045z"/>
								</g>
							</g>
							<g>
								<g>
									<path style="fill:#FFFFFF;" d="M618.86,255.099c0.323-1.842,0.646-3.685,0.969-5.527c0.101-0.578-0.155-1.24-0.786-1.384
										c-0.547-0.125-1.275,0.166-1.384,0.786c-0.323,1.842-0.646,3.685-0.969,5.527c-0.101,0.577,0.155,1.24,0.786,1.384
										C618.023,256.009,618.751,255.719,618.86,255.099L618.86,255.099z"/>
								</g>
							</g>
							<g>
								<g>
									<path style="fill:#FFFFFF;" d="M627.246,246.276c0.75,1.771,1.5,3.541,2.25,5.312c0.102,0.24,0.434,0.451,0.672,0.517
										c0.269,0.074,0.628,0.041,0.867-0.113c0.566-0.365,0.65-0.957,0.404-1.539c-0.75-1.771-1.5-3.541-2.25-5.312
										c-0.102-0.24-0.434-0.451-0.672-0.517c-0.269-0.074-0.628-0.041-0.867,0.113C627.084,245.102,627,245.694,627.246,246.276
										L627.246,246.276z"/>
								</g>
							</g>
							<g>
								<g>
									<path style="fill:#FFFFFF;" d="M619.298,239.502c0.714,1.445,1.429,2.889,2.143,4.334c0.261,0.529,1.053,0.717,1.539,0.404
										c0.541-0.349,0.683-0.974,0.404-1.539c-0.714-1.445-1.429-2.889-2.143-4.334c-0.261-0.529-1.053-0.717-1.539-0.404
										C619.16,238.312,619.018,238.936,619.298,239.502L619.298,239.502z"/>
								</g>
							</g>
							<g>
								<g>
									<path style="fill:#FFFFFF;" d="M612.531,238.882c0.209-1.241,0.419-2.483,0.628-3.724c0.052-0.306,0.049-0.589-0.113-0.867
										c-0.136-0.233-0.404-0.456-0.672-0.517c-0.544-0.124-1.279,0.165-1.384,0.786c-0.209,1.242-0.419,2.483-0.628,3.724
										c-0.052,0.306-0.049,0.589,0.113,0.867c0.137,0.233,0.404,0.456,0.672,0.517
										C611.692,239.792,612.427,239.503,612.531,238.882L612.531,238.882z"/>
								</g>
							</g>
						</g>
					</g>
				</g>
				<g>
					<path style="fill:#FFFFFF;stroke:#010001;stroke-miterlimit:10;" d="M606.897,216.933c-1.335-2.052-3.42-3.188-5.245-4.036
						c-0.587-0.32-1.25-0.532-1.968-0.638c-0.714-0.13-1.411-0.143-2.069-0.028c-2,0.216-4.176,1.09-6.101,2.604
						c-4.016,3.159-5.405,7.872-3.103,10.527c1.856,2.141,4.038,1.807,7.502,0.13c4.097,4.534,7.786,4.229,10.231,2.799
						C609.178,226.516,609.684,221.215,606.897,216.933z"/>
					<g>
						<g>
							<path style="fill:#FFFFFF;stroke:#010001;stroke-miterlimit:10;" d="M606.454,193.049c-1.217,0.042-2.326,0.47-3.221,1.156
								l-0.115-3.355c-0.183-5.318-4.154-9.539-8.825-9.378l-7.026,0.241c-4.671,0.16-8.344,4.643-8.161,9.962l0.374,10.892
								c0.183,5.318,4.154,9.539,8.825,9.378l4.063-0.14l0.201,5.867c0.083,2.406,2.119,4.307,4.525,4.224l2.787-0.096
								c2.406-0.083,4.307-2.119,4.224-4.525l-0.228-6.63l-0.013-0.369l-0.228-6.63c-0.005-0.133-0.021-0.263-0.038-0.393
								c0.929,0.599,2.045,0.934,3.237,0.893c3.089-0.106,5.509-2.676,5.403-5.741C612.133,195.341,609.544,192.943,606.454,193.049
								z"/>
							<path style="fill:none;stroke:#010001;stroke-linecap:round;stroke-miterlimit:10;" d="M603.644,199.434
								c0,0-0.376-3.76,3.509-3.474"/>
							<g>
								<g>
									<path style="fill:#010001;" d="M593.288,194.75c0.03,0.875-0.655,1.608-1.529,1.638c-0.875,0.03-1.608-0.655-1.638-1.529
										c-0.03-0.875,0.655-1.608,1.529-1.638C592.524,193.191,593.258,193.875,593.288,194.75z"/>
									<path style="fill:#010001;" d="M582.911,194.874c0.026,0.747-0.559,1.373-1.305,1.398
										c-0.747,0.026-1.373-0.559-1.398-1.306c-0.026-0.747,0.559-1.373,1.305-1.398
										C582.259,193.543,582.885,194.128,582.911,194.874z"/>
								</g>
								<g>
									<path style="fill:#ED80A5;" d="M598.992,200.385c0.075,2.174-1.627,3.997-3.802,4.072
										c-2.174,0.075-3.997-1.627-4.072-3.802c-0.075-2.174,1.627-3.997,3.802-4.072
										C597.095,196.509,598.918,198.211,598.992,200.385z"/>
									<path style="fill:#ED80A5;" d="M580.513,198.02c-0.24,0.008-0.47,0.047-0.692,0.108l0.14,4.083
										c0.021,0.61,0.064,1.2,0.207,1.77c0.165,0.022,0.378,0.038,0.55,0.032c1.655-0.057,2.95-1.444,2.893-3.099
										C583.555,199.258,582.168,197.963,580.513,198.02z"/>
								</g>
								<g>
									<g>
										<path style="fill:#010001;" d="M594.162,191.806c-0.848-0.41-1.734-0.738-2.648-0.967
											c-0.196-0.049-0.407,0.063-0.461,0.262c-0.053,0.192,0.065,0.412,0.262,0.461c0.853,0.214,1.68,0.509,2.469,0.891
											c0.182,0.088,0.405,0.05,0.513-0.135C594.393,192.154,594.345,191.894,594.162,191.806L594.162,191.806z"/>
									</g>
								</g>
								<g>
									<g>
										<path style="fill:#010001;" d="M582.844,191.786c-0.941-0.003-1.879,0.081-2.806,0.24c-0.2,0.034-0.312,0.28-0.262,0.461
											c0.058,0.211,0.261,0.296,0.461,0.262c0.861-0.148,1.733-0.216,2.607-0.213c0.203,0.001,0.375-0.173,0.375-0.375
											C583.219,191.957,583.047,191.787,582.844,191.786L582.844,191.786z"/>
									</g>
								</g>
								<g>
									<g>
										<path style="fill:#010001;" d="M585.873,193.323c-0.434,1.452-1.073,2.826-1.898,4.098
											c-0.144,0.222,0.012,0.467,0.224,0.551c0.724,0.284,1.471,0.462,2.241,0.559c0.201,0.025,0.375-0.19,0.375-0.375
											c0-0.224-0.173-0.35-0.375-0.375c-0.7-0.088-1.385-0.275-2.042-0.532c0.075,0.184,0.149,0.367,0.224,0.551
											c0.859-1.323,1.522-2.766,1.974-4.277C586.735,193.059,586.012,192.861,585.873,193.323L585.873,193.323z"/>
									</g>
								</g>
							</g>
							<g>
								<g>
									<g>
										<path style="fill:#6348ED;" d="M606.921,175.463c0.962,1.521,2.976,1.974,4.497,1.012
											c1.521-0.963,1.974-2.976,1.011-4.497c-0.963-1.521-2.976-1.974-4.497-1.011
											C606.411,171.928,605.958,173.942,606.921,175.463z"/>
										<path style="fill:none;stroke:#010001;stroke-miterlimit:10;" d="M613.889,167.126c0,0-4.967-6.052-3.224-14.525
											c1.743-8.472,11.579-13.996,18.322-12.268c6.743,1.727,9.867,2.081,12.98-4.595c3.113-6.676,10.548-14.998,27.15-11.419
											c16.602,3.578,16.483,23.686,14.975,30.024c-1.913,8.046-7.408,12.471-14.533,16.403
											c-7.125,3.932-17.492,4.057-24.275-2.163c-6.782-6.22-11.661-5.336-12.102-0.045
											C632.693,174.415,618.897,175.367,613.889,167.126z"/>
									</g>
								</g>
								<path style="fill:#010001;" d="M605.926,177.66c-5.9-5.556-14.182-5.729-21.717-0.846
									c-7.535,4.883-7.105,12.442-6.611,13.504c0.293,0.63,0.691,1.098,1.506,1.234c0.713,0.065,1.905-0.106,4.021-0.633
									c6.092-1.518,9.793-6.967,9.793-6.967s-0.488,0.977,1.754,5.349c1.682,3.28,5.737,5.204,7.801,5.986
									c0.597-0.873,2.079-2.101,3.925-2.235c1.323-0.096,2.851,0.584,3.852,1.299C611.7,191.275,611.356,182.773,605.926,177.66z"
									/>
							</g>
							<g>
								<g>
									<path style="fill:#010001;" d="M583.669,203.304c0.057,1.175,0.8,2.198,1.917,2.584c1.097,0.379,2.369-0.001,3.088-0.907
										c0.418-0.527,0.634-1.172,0.621-1.844c-0.01-0.482-0.76-0.484-0.75,0c0.023,1.119-0.837,2.109-1.979,2.146
										c-1.132,0.037-2.092-0.848-2.147-1.979C584.396,202.824,583.646,202.821,583.669,203.304L583.669,203.304z"/>
								</g>
							</g>
						</g>
					</g>
				</g>
				<g>
					<g>
						<g>
							<g>
								<polygon style="fill:#FFFFFF;stroke:#6040EF;stroke-miterlimit:10;" points="504.906,361.283 505.613,381.747 
									521.34,383.733 521.634,361.672 								"/>
								<g>
									<line style="fill:none;stroke:#6040EF;stroke-miterlimit:10;" x1="507.363" y1="361.34" x2="508.569" y2="382.236"/>
									<line style="fill:none;stroke:#6040EF;stroke-miterlimit:10;" x1="510.994" y1="361.434" x2="512.201" y2="382.329"/>
									<line style="fill:none;stroke:#6040EF;stroke-miterlimit:10;" x1="514.404" y1="361.133" x2="515.023" y2="382.443"/>
									<line style="fill:none;stroke:#6040EF;stroke-miterlimit:10;" x1="517.533" y1="361.362" x2="518.168" y2="382.837"/>
								</g>
							</g>
							<g>
								<polygon style="fill:#FFFFFF;stroke:#0F110E;stroke-miterlimit:10;" points="476.249,408.313 526.595,407.292 
									524.873,377.54 501.285,379.599 500.791,391.249 								"/>
								<g>
									<g>
										
											<line style="fill:none;stroke:#101010;stroke-linecap:round;stroke-miterlimit:10;" x1="490.767" y1="395.444" x2="494.002" y2="402.283"/>
										
											<line style="fill:none;stroke:#101010;stroke-linecap:round;stroke-miterlimit:10;" x1="495.349" y1="392.822" x2="498.584" y2="399.661"/>
									</g>
									<g>
										<path style="fill:none;stroke:#101010;stroke-linecap:round;stroke-miterlimit:10;" d="M498.829,391.716
											c0,0-13.073-5.002-11.016-8.723C491.123,377.008,498.829,391.716,498.829,391.716z"/>
										
											<line style="fill:none;stroke:#101010;stroke-linecap:round;stroke-miterlimit:10;" x1="495.674" y1="379.276" x2="499.183" y2="391.941"/>
									</g>
								</g>
								<path style="fill:#F19101;" d="M506.334,392.305c0.115,3.354,2.927,5.979,6.281,5.864c3.354-0.115,5.979-2.927,5.864-6.281
									c-0.115-3.354-2.927-5.979-6.281-5.864C508.844,386.139,506.219,388.951,506.334,392.305z"/>
							</g>
						</g>
						<g>
							<g>
								<polygon style="fill:#FFFFFF;stroke:#6040EF;stroke-miterlimit:10;" points="466.747,316.523 453.551,332.179 
									463.887,344.198 478.898,328.027 								"/>
								<g>
									<line style="fill:none;stroke:#6040EF;stroke-miterlimit:10;" x1="468.531" y1="318.212" x2="455.416" y2="334.524"/>
									<line style="fill:none;stroke:#6040EF;stroke-miterlimit:10;" x1="471.163" y1="320.716" x2="458.048" y2="337.028"/>
									<line style="fill:none;stroke:#6040EF;stroke-miterlimit:10;" x1="473.894" y1="322.779" x2="460.065" y2="339.004"/>
									<line style="fill:none;stroke:#6040EF;stroke-miterlimit:10;" x1="476.063" y1="325.047" x2="462.134" y2="341.406"/>
								</g>
							</g>
							<g>
								<polygon style="fill:#FFFFFF;stroke:#0F110E;stroke-miterlimit:10;" points="413.953,332.202 451.99,365.199 
									470.661,341.972 451.78,327.684 443.602,335.996 								"/>
								<g>
									<g>
										
											<line style="fill:none;stroke:#101010;stroke-linecap:round;stroke-miterlimit:10;" x1="433.353" y1="332.387" x2="431.167" y2="339.63"/>
										
											<line style="fill:none;stroke:#101010;stroke-linecap:round;stroke-miterlimit:10;" x1="438.51" y1="333.514" x2="436.324" y2="340.757"/>
									</g>
									<g>
										<path style="fill:none;stroke:#101010;stroke-linecap:round;stroke-miterlimit:10;" d="M441.833,335.027
											c0,0-6.346-12.477-2.324-13.858C445.977,318.948,441.833,335.027,441.833,335.027z"/>
										
											<line style="fill:none;stroke:#101010;stroke-linecap:round;stroke-miterlimit:10;" x1="447.834" y1="323.682" x2="441.945" y2="335.431"/>
									</g>
								</g>
								<path style="fill:#F19101;" d="M447.007,340.496c-2.163,2.565-1.837,6.398,0.728,8.561c2.565,2.163,6.398,1.837,8.562-0.728
									c2.163-2.565,1.837-6.398-0.728-8.561C453.003,337.605,449.17,337.931,447.007,340.496z"/>
							</g>
						</g>
					</g>
					<g>
						<path style="fill:#6348ED;" d="M593.153,295.24l-7.681-4.19c0,0-25.734-12.559-32.867-15.599
							c-7.132-3.039-24.362-9.827-29.271-10.857c-4.909-1.03-12.102-3.246-22.809,4.438c0,0-17.29,13.039-19.258,14.751
							c-1.967,1.712-26.718,25.364-26.718,25.364l32.002,27.617l10.073-11.268l-3.081,38.46l38.416,0.414l-0.584-38.771
							c0,0-0.293-1.112,1.435-0.996c1.729,0.116,28.928,0.901,28.928,0.901s4.896,0.14,7.095,0.89
							c2.199,0.75,20.586,4.818,29.403,2.186c8.817-2.632,11.725-6.699,12.96-9.504c1.235-2.804,2.431-6.383,2.582-9.166
							C613.928,307.127,593.153,295.24,593.153,295.24z"/>
						<g>
							<path style="fill:none;stroke:#010001;stroke-linecap:round;stroke-miterlimit:10;" d="M590.795,293.783
								c0,0-60.057-31.496-76.718-30.505c-16.661,0.99-59.529,45.87-59.529,45.87l32.002,27.617l10.12-11.809"/>
							<path style="fill:none;stroke:#010001;stroke-linecap:round;stroke-miterlimit:10;" d="M506.133,294.466
								c0,0,49.359,28.577,63.356,32.103c13.615,3.43,50.463,10.78,43.601-29.219"/>
							<path style="fill:none;stroke:#010001;stroke-linecap:round;stroke-miterlimit:10;" d="M512.346,298.015
								c0,0-12.633,0.733-13.941,9.626c-1.308,8.893-4.863,56.315-4.863,56.315l38.416,0.414l-0.734-48.729"/>
							
								<line style="fill:none;stroke:#010001;stroke-linecap:round;stroke-miterlimit:10;" x1="531.36" y1="324.652" x2="565.753" y2="325.366"/>
						</g>
					</g>
				</g>
			</g>
			<g>
				<rect x="549.736" y="325.36" style="fill:#958F99;stroke:#010001;stroke-miterlimit:10;" width="68" height="133.059"/>
				<rect x="462.646" y="407.899" style="fill:#BFBCC0;stroke:#010001;stroke-miterlimit:10;" width="68" height="50.941"/>
				<rect x="284.297" y="309.661" style="fill:#BFBCC0;stroke:#010001;stroke-miterlimit:10;" width="68" height="148.758"/>
				<rect x="375.449" y="371.788" style="fill:#958F99;stroke:#010001;stroke-miterlimit:10;" width="68" height="86.631"/>
				<rect x="199.297" y="346.461" style="fill:#958F99;stroke:#010001;stroke-miterlimit:10;" width="68" height="111.959"/>
			</g>
			<g>
				<g>
					<g>
						<path style="fill:#FFFFFF;" d="M252.243,210.189l-9.358-9.258c0,0,9.243-9.203,11.097-11.165
							c1.854-1.962,4.392-3.562,6.428-1.541c2.037,2.021,3.858,9.445,1.926,11.559C260.403,201.898,252.243,210.189,252.243,210.189
							z"/>
						<g>
							<path style="fill:#6348ED;stroke:#010001;stroke-linecap:round;stroke-miterlimit:10;" d="M158.157,177.066
								c0,0,10.179-3.33,44.14,33.123l39.233-11.349l14.015,15.518c0,0-31.261,31.537-49.723,35.591
								c-10.273,2.256-23.978,2.413-36.35-18.807C157.101,209.922,158.157,177.066,158.157,177.066z"/>
							<path style="fill:#6348ED;stroke:#010001;stroke-linecap:round;stroke-miterlimit:10;" d="M248.305,221.269
								c4.049-4.145,7.24-6.912,7.24-6.912l-14.015-15.518l-8.629,2.98L248.305,221.269z"/>
						</g>
						<path style="fill:none;stroke:#010001;stroke-linecap:round;stroke-miterlimit:10;" d="M194.696,216.341
							c0,0,5.078-5.422,11.127-7.172"/>
					</g>
					<g>
						<g>
							<g>
								<g>
									<polygon style="fill:#FFFFFF;stroke:#010001;stroke-miterlimit:10;" points="176.22,408.984 175.083,430.987 
										161.112,433.344 161.212,410.236 									"/>
								</g>
								<g>
									<g>
										<polygon style="fill:#6348ED;" points="207.717,458.573 154.162,458.319 155.501,426.652 180.618,428.451 
											181.337,440.832 										"/>
									</g>
									<g>
										<g>
											
												<line style="fill:none;stroke:#010001;stroke-linecap:round;stroke-miterlimit:10;" x1="192.066" y1="445.127" x2="188.739" y2="452.454"/>
											
												<line style="fill:none;stroke:#010001;stroke-linecap:round;stroke-miterlimit:10;" x1="187.15" y1="442.415" x2="183.823" y2="449.741"/>
										</g>
										<g>
											<path style="fill:none;stroke:#010001;stroke-linecap:round;stroke-miterlimit:10;" d="M183.431,441.297
												c0,0,13.82-5.536,11.571-9.458C191.383,425.528,183.431,441.297,183.431,441.297z"/>
											
												<line style="fill:none;stroke:#010001;stroke-linecap:round;stroke-miterlimit:10;" x1="186.58" y1="428.015" x2="183.059" y2="441.542"/>
										</g>
									</g>
									<path style="fill:#FFFFFF;" d="M164.64,458.369c0.792-1.464,1.221-3.147,1.144-4.928c-0.226-5.252-4.683-9.342-9.935-9.116
										c-0.374,0.016-0.739,0.059-1.1,0.117l-0.028,0.658c0.378-0.066,0.762-0.117,1.155-0.134
										c4.899-0.211,9.056,3.604,9.267,8.502c0.077,1.783-0.385,3.465-1.233,4.897L164.64,458.369z"/>
									<polyline style="fill:none;stroke:#010001;stroke-linecap:round;stroke-miterlimit:10;" points="207.717,458.573 
										154.162,458.319 155.501,426.652 									"/>
								</g>
							</g>
							<g>
								<polygon style="fill:#010001;" points="148.4,414.344 183.059,413.484 189.807,266.819 140.948,266.727 								"/>
								
									<line style="fill:none;stroke:#FFFFFF;stroke-linecap:round;stroke-miterlimit:10;" x1="140.948" y1="266.727" x2="148.4" y2="414.344"/>
								
									<line style="fill:none;stroke:#FFFFFF;stroke-linecap:round;stroke-miterlimit:10;" x1="147.698" y1="400.429" x2="183.546" y2="400.429"/>
							</g>
						</g>
						<g>
							<g>
								<g>
									<polygon style="fill:#FFFFFF;stroke:#010001;stroke-miterlimit:10;" points="98.392,407.551 94.412,429.221 
										107.46,434.743 112.703,412.238 									"/>
								</g>
								<g>
									<g>
										<polygon style="fill:#6348ED;" points="58.194,458.387 111.749,458.133 113.74,426.86 87.989,428.072 84.574,440.646 
																					"/>
									</g>
									<g>
										<g>
											
												<line style="fill:none;stroke:#010001;stroke-linecap:round;stroke-miterlimit:10;" x1="73.845" y1="444.941" x2="77.172" y2="452.267"/>
											
												<line style="fill:none;stroke:#010001;stroke-linecap:round;stroke-miterlimit:10;" x1="78.761" y1="442.228" x2="82.088" y2="449.555"/>
										</g>
										<g>
											<path style="fill:none;stroke:#010001;stroke-linecap:round;stroke-miterlimit:10;" d="M82.48,441.11
												c0,0-13.82-5.536-11.571-9.458C74.528,425.342,82.48,441.11,82.48,441.11z"/>
											
												<line style="fill:none;stroke:#010001;stroke-linecap:round;stroke-miterlimit:10;" x1="79.331" y1="427.828" x2="82.852" y2="441.356"/>
										</g>
									</g>
									<path style="fill:#FFFFFF;" d="M101.271,458.182c-0.792-1.464-1.221-3.147-1.144-4.928
										c0.226-5.252,4.683-9.342,9.935-9.116c0.373,0.016,2.04,0.194,2.401,0.252l-0.14,0.677
										c-0.378-0.066-1.895-0.271-2.288-0.288c-4.899-0.211-9.056,3.604-9.267,8.503c-0.077,1.783,0.385,3.465,1.233,4.897
										L101.271,458.182z"/>
									<polyline style="fill:none;stroke:#010001;stroke-linecap:round;stroke-miterlimit:10;" points="58.194,458.387 
										111.749,458.133 113.51,426.707 									"/>
								</g>
							</g>
							<g>
								<polygon style="fill:#010001;" points="116.021,269.386 89.686,410.351 125.244,418.06 164.465,271.622 								"/>
								<g>
									<polyline style="fill:none;stroke:#FFFFFF;stroke-linecap:round;stroke-miterlimit:10;" points="125.244,418.06 
										160.957,284.721 171.556,284.721 									"/>
									<path style="fill:none;stroke:#FFFFFF;stroke-linecap:round;stroke-miterlimit:10;" d="M111.047,296.009
										c0,0,11.15-0.02,17.759-12.874"/>
									
										<line style="fill:none;stroke:#FFFFFF;stroke-linecap:round;stroke-miterlimit:10;" x1="91.792" y1="399.078" x2="128.278" y2="406.729"/>
								</g>
							</g>
						</g>
					</g>
				</g>
				<g>
					<path style="fill:#6348ED;" d="M185.875,216.715l5.682,58.58h-78.363c0,0-0.082-43.657,2.158-62.715
						c2.24-19.058,21.115-33.355,31.143-32.967c10.029,0.388,18.597,2.451,18.597,2.451L185.875,216.715z"/>
					<path style="fill:none;stroke:#010001;stroke-linecap:round;stroke-miterlimit:10;" d="M183.5,212.755l8.057,62.54h-78.363
						c0,0-0.082-43.657,2.158-62.715c2.24-19.058,21.115-33.355,31.143-32.967c10.029,0.388,18.597,2.451,18.597,2.451"/>
					<path style="fill:#6348ED;stroke:#010001;stroke-linecap:round;stroke-miterlimit:10;" d="M113.194,275.295h78.363
						l-1.594-12.377h-76.703C113.184,270.283,113.194,275.295,113.194,275.295z"/>
				</g>
				<g>
					<g>
						<g>
							
								<ellipse transform="matrix(0.7071 -0.7071 0.7071 0.7071 -0.7176 265.6574)" style="fill:#FFFFFF;stroke:#010001;stroke-miterlimit:10;" cx="320.318" cy="133.695" rx="63.615" ry="63.615"/>
							<g>
								<defs>
									
										<ellipse id="SVGID_1_" transform="matrix(0.7071 -0.7071 0.7071 0.7071 -0.7176 265.6574)" cx="320.318" cy="133.695" rx="63.615" ry="63.615"/>
								</defs>
								<clipPath id="SVGID_00000014624564463749378090000006994720030586907308_">
									<use xlink:href="#SVGID_1_"  style="overflow:visible;"/>
								</clipPath>
								<g style="clip-path:url(#SVGID_00000014624564463749378090000006994720030586907308_);">
									<g>
										<g>
											<g>
												<path style="fill:#F19101;" d="M320.197,238.7l21.217-30.691c4.316-6.243,12.909-7.741,19.083-3.326l2.981,2.132
													c7.405,5.295,17.82,1.955,20.764-6.658l10.303-30.141c4.19-12.259,21.528-12.259,25.718,0l4.985,14.585
													c3.999,11.699,20.275,12.414,25.283,1.11l4.323-9.757c4.312-9.733,17.635-10.953,23.643-2.164v0
													c6.314,9.236,20.459,7.312,24.077-3.274l4.82-14.101c4.428-12.954,23.067-11.972,26.109,1.376l18.437,80.91
													C551.941,238.7,320.844,238.053,320.197,238.7z"/>
											</g>
											<g>
												<path style="fill:#6348ED;" d="M537.526,209.637c-4.036-8.006-15.172-9.492-20.73-2.457
													c-0.19,0.242-0.374,0.491-0.551,0.749c0,0-6.05,11.066-9.297,13.6c-7.973,6.222-17.848,7.588-28.55-6.714l-6.69-8.318
													c-4.446-5.528-12.454-6.583-18.18-2.395l-7.743,5.663c-3.637,2.66-8.605,7.818-12.432,5.731
													c-4.237-2.31-15.58-11.395-15.58-11.395c-5.726-4.188-13.734-3.133-18.18,2.395l-6.69,8.318
													c-6.463,8.036-19.22,5.955-22.795-3.718l-8.257-22.346c-4.329-11.716-20.972-11.512-25.011,0.307l-16.593,48.546
													l-1.284,1.415c0,0,0.279-0.001,0.801-0.003l-0.164,0.48c0-0.953,232.739-0.477,232.739-0.477L537.526,209.637z"/>
											</g>
											
												<line style="fill:none;stroke:#010001;stroke-linecap:round;stroke-miterlimit:10;" x1="274.835" y1="239.472" x2="569.414" y2="239.472"/>
											<g>
												<g>
													<g>
														
															<line style="fill:none;stroke:#010001;stroke-width:0.4763;stroke-miterlimit:10;" x1="347.901" y1="121.725" x2="347.901" y2="123.63"/>
														
															<line style="fill:none;stroke:#010001;stroke-width:0.4763;stroke-miterlimit:10;stroke-dasharray:3.6855,3.6855;" x1="347.901" y1="127.315" x2="347.901" y2="236.038"/>
														
															<line style="fill:none;stroke:#010001;stroke-width:0.4763;stroke-miterlimit:10;" x1="347.901" y1="237.881" x2="347.901" y2="239.786"/>
													</g>
												</g>
												
													<line style="fill:none;stroke:#010001;stroke-width:0.4763;stroke-miterlimit:10;stroke-dasharray:3.8102;" x1="406.003" y1="128.817" x2="406.003" y2="242.425"/>
												
													<line style="fill:none;stroke:#010001;stroke-width:0.4763;stroke-miterlimit:10;stroke-dasharray:3.8102;" x1="521.291" y1="112.123" x2="521.291" y2="240.855"/>
												
													<line style="fill:none;stroke:#010001;stroke-width:0.4763;stroke-miterlimit:10;stroke-dasharray:3.8102;" x1="464.32" y1="152.593" x2="464.32" y2="239.786"/>
											</g>
											<path style="fill:#BFBCC0;" d="M504.619,149.212h-41.271c-0.826,0-1.495-0.669-1.495-1.495l0,0
												c0-0.826,0.669-1.495,1.495-1.495h41.271c0.826,0,1.495,0.669,1.495,1.495l0,0
												C506.114,148.542,505.445,149.212,504.619,149.212z"/>
											<path style="fill:#BFBCC0;" d="M561.319,109.132h-41.271c-0.826,0-1.495-0.67-1.495-1.495l0,0
												c0-0.826,0.67-1.495,1.495-1.495h41.271c0.826,0,1.495,0.669,1.495,1.495l0,0
												C562.815,108.463,562.145,109.132,561.319,109.132z"/>
											<path style="fill:#BFBCC0;" d="M548.586,103.173h-29.141c-0.493,0-0.892-0.399-0.892-0.892v-1.206
												c0-0.493,0.399-0.892,0.892-0.892h29.141c0.493,0,0.892,0.399,0.892,0.892v1.206
												C549.478,102.773,549.079,103.173,548.586,103.173z"/>
											<path style="fill:#BFBCC0;" d="M446.526,125.688h-41.271c-0.826,0-1.495-0.669-1.495-1.495l0,0
												c0-0.826,0.669-1.495,1.495-1.495h41.271c0.826,0,1.495,0.669,1.495,1.495l0,0
												C448.021,125.018,447.352,125.688,446.526,125.688z"/>
											<path style="fill:#BFBCC0;" d="M388.872,118.852h-41.271c-0.826,0-1.495-0.669-1.495-1.495l0,0
												c0-0.826,0.669-1.495,1.495-1.495h41.271c0.826,0,1.495,0.669,1.495,1.495l0,0
												C390.368,118.182,389.698,118.852,388.872,118.852z"/>
											<path style="fill:#BFBCC0;" d="M369.458,112.123h-22.563c-0.435,0-0.788-0.353-0.788-0.788v-1.414
												c0-0.435,0.353-0.788,0.788-0.788h22.563c0.435,0,0.788,0.353,0.788,0.788v1.414
												C370.246,111.77,369.893,112.123,369.458,112.123z"/>
											<path style="fill:#BFBCC0;" d="M492.355,143.23h-29.604c-0.497,0-0.899-0.402-0.899-0.899v-1.193
												c0-0.496,0.402-0.899,0.899-0.899h29.604c0.497,0,0.899,0.402,0.899,0.899v1.193
												C493.254,142.828,492.852,143.23,492.355,143.23z"/>
											<g>
												<g>
													<g>
														<path style="fill:#F19101;" d="M294.703,144.272l40.08-6.124c3.36,21.987-11.969,42.844-33.956,46.204
															c-21.987,3.359-42.844-11.968-46.204-33.956c-3.36-21.987,11.968-42.844,33.955-46.204
															c3.501-0.535,7.056-0.609,10.576-0.22L294.703,144.272z"/>
													</g>
												</g>
												<g>
													<g>
														<path style="fill:#6348ED;" d="M307.707,104.101l-4.866,31.069l30.497-5.727
															C333.338,129.442,328.854,112.03,307.707,104.101z"/>
													</g>
												</g>
											</g>
										</g>
									</g>
								</g>
							</g>
						</g>
						<g>
							<g>
								<g>
									<polygon style="fill:#958F99;stroke:#0F110E;stroke-miterlimit:10;" points="217.559,227.745 210.421,218.777 
										267.01,173.736 273.492,183.063 									"/>
									<path style="fill:#F19101;stroke:#0F110E;stroke-miterlimit:10;" d="M211.294,216.381l-75.099,59.167
										c-3.298,2.625-4.378,6.755-2.413,9.224l2.47,3.103c1.965,2.469,6.232,2.343,9.53-0.282l73.996-59.901L211.294,216.381z"/>
									<g>
										<path style="fill:#958F99;stroke:#0F110E;stroke-miterlimit:10;" d="M388.572,154.513
											c3.894-13.787,3.624-28.252-0.882-41.861c-9.063-27.369-35.74-46.904-64.558-47.275
											c-14.492-0.187-28.488,3.913-40.538,11.989c-11.931,7.996-21.26,19.936-26.224,33.407
											c-4.767,12.937-5.722,27.43-2.326,40.819c3.663,14.441,11.622,27.253,22.998,36.896
											c21.536,18.257,53.889,21.396,78.458,7.424c3.35-1.905,6.566-4,9.591-6.387
											C376.223,180.589,384.681,168.287,388.572,154.513z M354.145,183.439c-0.723,0.493-1.463,0.957-2.197,1.434
											c-0.06,0.039-0.187,0.117-0.296,0.183c-0.359,0.21-0.718,0.418-1.081,0.62c-2.835,1.582-5.792,2.947-8.835,4.077
											c-1.316,0.489-2.65,0.923-3.994,1.329c-0.109,0.025-1.071,0.296-1.333,0.361c-0.893,0.223-1.79,0.425-2.691,0.609
											c-3.015,0.615-6.075,1.011-9.147,1.186c-0.414,0.023-0.828,0.036-1.242,0.058c-0.12,0.006-0.391,0.014-0.576,0.019
											c-0.564,0.004-1.128,0.003-1.692-0.009c-1.654-0.034-3.307-0.132-4.953-0.294c-1.481-0.145-2.958-0.342-4.426-0.589
											c-0.734-0.124-1.466-0.261-2.195-0.41c-0.405-0.083-0.81-0.169-1.214-0.26c-0.113-0.025-0.465-0.114-0.711-0.176
											c-2.825-0.755-5.602-1.66-8.306-2.778c-1.389-0.574-2.758-1.198-4.102-1.869c-0.375-0.187-0.746-0.381-1.118-0.573
											c-0.084-0.043-0.247-0.133-0.393-0.214c-0.684-0.389-1.366-0.782-2.037-1.194c-2.756-1.69-5.383-3.591-7.85-5.681
											c-0.526-0.445-1.045-0.9-1.556-1.362c-0.321-0.29-0.638-0.585-0.953-0.881c-0.017-0.016-0.027-0.025-0.042-0.039
											c-0.048-0.05-0.101-0.105-0.165-0.171c-1.161-1.2-2.313-2.4-3.402-3.668c-2.136-2.49-4.014-5.142-5.798-7.891
											c-0.051-0.078-0.092-0.141-0.13-0.199c-0.01-0.018-0.017-0.029-0.029-0.05c-0.218-0.374-0.434-0.749-0.645-1.127
											c-0.336-0.602-0.662-1.209-0.978-1.822c-0.784-1.519-1.507-3.069-2.166-4.647c-0.588-1.406-1.125-2.833-1.609-4.278
											c-0.241-0.719-0.464-1.442-0.684-2.168c-0.026-0.085-0.037-0.12-0.05-0.158c-0.012-0.045-0.016-0.062-0.029-0.115
											c-0.125-0.487-0.253-0.973-0.371-1.462c-0.722-2.997-1.226-6.047-1.509-9.117c-0.068-0.744-0.124-1.488-0.166-2.234
											c-0.019-0.331-0.035-0.662-0.049-0.993c0.001,0.024-0.014-0.46-0.025-0.761c-0.002-0.3-0.008-0.785-0.008-0.762
											c0.002-0.331,0.006-0.662,0.013-0.993c0.017-0.827,0.05-1.654,0.099-2.48c0.186-3.137,0.602-6.261,1.244-9.337
											c0.068-0.324,0.138-0.648,0.21-0.971c-0.005,0.023,0.109-0.449,0.179-0.741c0.078-0.291,0.201-0.759,0.195-0.736
											c0.088-0.32,0.178-0.639,0.27-0.957c0.464-1.595,0.99-3.171,1.576-4.725c0.53-1.403,1.109-2.788,1.736-4.151
											c0.28-0.608,0.569-1.211,0.867-1.809c0.187-0.375,0.381-0.746,0.572-1.118c0.055-0.105,0.111-0.209,0.167-0.314
											c0.021-0.038,0.047-0.083,0.089-0.158c1.561-2.722,3.282-5.339,5.212-7.814c0.951-1.219,1.946-2.404,2.984-3.551
											c0.29-0.321,0.585-0.638,0.881-0.954c0.017-0.018,0.025-0.027,0.039-0.042c0.05-0.048,0.105-0.101,0.171-0.165
											c0.629-0.608,1.247-1.226,1.89-1.819c2.404-2.222,4.977-4.26,7.689-6.094c0.652-0.441,1.315-0.864,1.979-1.286
											c0.091-0.058,0.153-0.098,0.216-0.138c0.31-0.182,0.621-0.362,0.934-0.539c1.423-0.801,2.876-1.548,4.356-2.238
											c2.823-1.316,5.739-2.398,8.719-3.301c0.084-0.014,1.313-0.356,1.557-0.416c0.731-0.179,1.465-0.346,2.202-0.499
											c1.632-0.339,3.277-0.615,4.929-0.825c1.482-0.189,2.971-0.326,4.464-0.411c0.599-0.034,1.199-0.055,1.799-0.074
											c0.171-0.004,0.371-0.008,0.469-0.007c0.497,0.004,0.993,0.007,1.49,0.019c3.059,0.075,6.113,0.368,9.13,0.877
											c1.405,0.237,2.805,0.522,4.19,0.857c0.166,0.043,0.362,0.095,0.456,0.122c0.398,0.114,0.799,0.219,1.197,0.335
											c0.797,0.232,1.589,0.479,2.376,0.741c3.005,1.002,5.935,2.227,8.758,3.664c0.239,0.122,1.106,0.596,1.215,0.649
											c0.633,0.361,1.264,0.724,1.886,1.105c1.372,0.841,2.711,1.735,4.015,2.677c1.247,0.902,2.46,1.848,3.638,2.838
											c0.594,0.499,1.178,1.008,1.753,1.528c0.257,0.232,0.509,0.468,0.764,0.702c0.09,0.083,0.139,0.127,0.194,0.175
											c0.046,0.049,0.105,0.112,0.203,0.214c2.339,2.42,4.557,4.915,6.546,7.634c0.933,1.276,1.805,2.591,2.654,3.924
											c0.058,0.091,0.098,0.153,0.137,0.216c0.182,0.31,0.362,0.621,0.539,0.935c0.465,0.826,0.912,1.661,1.34,2.507
											c1.42,2.807,2.631,5.719,3.62,8.706c0.206,0.622,0.396,1.248,0.584,1.875c-0.028-0.06,0.347,1.285,0.41,1.544
											c0.378,1.541,0.699,3.096,0.961,4.661c0.247,1.476,0.442,2.962,0.585,4.452c0.071,0.743,0.129,1.488,0.174,2.233
											c0.025,0.414,0.047,0.828,0.064,1.242c0.005,0.121,0.016,0.517,0.024,0.77c0.031,2.979-0.161,5.965-0.555,8.917
											c-0.197,1.476-0.444,2.945-0.743,4.403c-0.132,0.648-0.277,1.293-0.431,1.936c-0.028,0.106-0.057,0.217-0.073,0.275
											c-0.137,0.478-0.261,0.96-0.4,1.437c-0.883,3.035-1.99,6.005-3.312,8.876c-0.315,0.684-0.642,1.362-0.98,2.034
											c-0.115,0.228-0.734,1.369-0.753,1.422c-0.785,1.372-1.603,2.723-2.483,4.037c-1.76,2.629-3.718,5.126-5.85,7.464
											c-0.242,0.266-0.488,0.529-0.735,0.79c-0.053,0.052-0.106,0.104-0.182,0.18c-0.561,0.552-1.122,1.103-1.698,1.64
											c-1.231,1.146-2.508,2.237-3.819,3.29C356.739,181.59,355.462,182.542,354.145,183.439z"/>
									</g>
								</g>
							</g>
							<g>
								<g>
									<path style="fill:#FFFFFF;" d="M271.695,196.095c0,0,1.712-2.432,1.774-3.083c0.061-0.651-2.139-4.12-3.189-5.318
										c-1.051-1.198-2.974-2.663-3.74-2.842c-0.765-0.179-1.023,1.351-1.444,0.996c-0.421-0.356-1.801-0.985-2.291-0.412
										c-0.49,0.573-0.256,2.009-0.256,2.009s-0.623-0.107-1.345-0.072c-0.722,0.035-1.033,0.652-1.098,1.252
										c-0.065,0.6,0.035,0.657-0.538,0.967c-0.573,0.31-0.67,1.385-0.697,2.702c-0.027,1.317,1.01,9.552,0.702,9.922
										c-0.308,0.37-4.843,3.432-5.813,4.291c-0.97,0.859-1.026,2.292-0.717,2.105c0.309-0.187,4.488-3.28,7.664-3.561
										c3.176-0.281,5.51-1.929,6.223-2.886C267.644,201.208,271.695,196.095,271.695,196.095z"/>
									<g>
										<path style="fill:none;stroke:#0F110E;stroke-miterlimit:10;" d="M264.838,199.672c0,0-2.842-9.448-4.623-9.865
											c-1.781-0.417-1.457,2.074-1.218,6.668l0.669,5.135"/>
										<path style="fill:none;stroke:#0F110E;stroke-miterlimit:10;" d="M267.157,197.203c0,0-2.753-6.528-3.098-7.052
											c-0.346-0.524-1.403-2.847-2.855-2.777c-1.452,0.07-1.139,2.618-1.139,2.618"/>
										<path style="fill:none;stroke:#0F110E;stroke-miterlimit:10;" d="M270.75,194.649c0,0-4.549-8.686-6.42-9.347
											c-1.871-0.661-2.168,0.842-1.623,2.838"/>
										<path style="fill:none;stroke:#0F110E;stroke-miterlimit:10;" d="M265.714,186.527c0,0-0.884-2.63,2.04-1.218
											c1.948,0.941,5.544,6.382,5.714,7.703c0.17,1.321-4.361,5.928-5.825,8.196c-1.464,2.268-3.959,3.971-7.759,3.845
											c-1.877-0.063-5.574,2.885-8.104,5.136"/>
									</g>
								</g>
							</g>
						</g>
					</g>
					<g>
						<g>
							<path style="fill:#FFFFFF;" d="M135.401,262.918c0,0,32.442,9.174,39.072,7.011c5.561-1.814-10.591-4.212-10.591-4.212
								s11.33,2.814,12.454,0.581c1.124-2.233-11.959-4.043-11.959-4.043s13.232,2.446,13.581,0.37
								c0.35-2.076-13.214-3.745-13.214-3.745s13.431,2.631,13.893,0.209c0.462-2.422-13.382-4.049-13.382-4.049
								s8.719-0.017,8.276-1.924c-0.443-1.907-18.238-0.688-31.891-5.32C133.821,245.144,135.401,262.918,135.401,262.918z"/>
							<g>
								<g>
									<g>
										<path style="fill:#0F110E;" d="M165.589,259.415c3.088,0.644,6.291,1.161,9.455,1.114
											c1.068-0.016,3.784,0.031,3.901-1.541c0.1-1.34-1.777-2.001-2.754-2.349c-2.014-0.718-4.16-1.095-6.266-1.427
											c-1.416-0.223-2.84-0.416-4.267-0.554c0,0.25,0,0.5,0,0.75c1.088-0.012,2.177-0.061,3.261-0.141
											c1.341-0.099,3.041-0.112,4.261-0.755c1.16-0.612,1.084-1.646-0.063-2.188c-1.407-0.665-3.244-0.654-4.776-0.81
											c-3.767-0.386-7.541-0.634-11.313-0.951c-3.183-0.268-6.364-1.025-9.485-1.671c-3.07-0.635-6.187-1.221-9.206-2.076
											c-0.465-0.132-0.664,0.592-0.199,0.723c5.238,1.483,10.714,2.499,16.079,3.386c2.586,0.428,5.189,0.524,7.798,0.745
											c1.918,0.163,3.835,0.342,5.751,0.535c1.564,0.157,3.393,0.15,4.861,0.732c1.344,0.532-0.344,1.126-0.934,1.245
											c-0.868,0.176-1.756,0.257-2.638,0.325c-1.13,0.087-2.264,0.139-3.397,0.152c-0.491,0.005-0.473,0.704,0,0.75
											c3.474,0.336,7.144,0.785,10.434,1.991c0.569,0.208,1.752,0.578,2.017,1.22c0.417,1.008-1.631,1.085-2.191,1.126
											c-3.363,0.243-6.851-0.37-10.129-1.054C165.317,258.594,165.116,259.317,165.589,259.415L165.589,259.415z"/>
									</g>
								</g>
								<g>
									<g>
										<path style="fill:#0F110E;" d="M164.993,262.723c2.659,0.524,5.343,0.973,8.037,1.269c1.319,0.145,2.882,0.415,4.19,0.057
											c0.956-0.262,1.757-1.124,1.182-2.121c-0.382-0.663-1.136-1.069-1.816-1.354c-1.248-0.525-2.603-0.741-3.943-0.876
											c-0.48-0.048-0.476,0.702,0,0.75c1.152,0.116,2.313,0.307,3.402,0.713c0.57,0.213,1.24,0.511,1.62,1.012
											c0.574,0.756-0.415,1.155-1.05,1.228c-1.301,0.15-2.679-0.05-3.971-0.202c-1.614-0.189-3.22-0.442-4.821-0.718
											c-0.879-0.151-1.757-0.308-2.632-0.481C164.721,261.907,164.519,262.63,164.993,262.723L164.993,262.723z"/>
									</g>
								</g>
								<g>
									<g>
										<path style="fill:#0F110E;" d="M165.242,266.413c1.433,0.302,2.886,0.534,4.337,0.732c1.833,0.249,3.883,0.6,5.72,0.208
											c0.618-0.132,1.447-0.427,1.629-1.116c0.189-0.714-0.467-1.288-0.998-1.632c-1.434-0.93-3.264-1.302-4.914-1.62
											c-0.472-0.091-0.674,0.632-0.199,0.723c1.402,0.27,2.858,0.585,4.149,1.217c0.355,0.174,0.725,0.371,1.005,0.657
											c0.144,0.148,0.252,0.329,0.24,0.431c-0.011,0.096-0.134,0.229-0.303,0.332c-0.291,0.177-0.648,0.261-0.98,0.317
											c-1.724,0.289-3.626-0.029-5.338-0.267c-1.388-0.192-2.777-0.416-4.148-0.706
											C164.97,265.591,164.769,266.313,165.242,266.413L165.242,266.413z"/>
									</g>
								</g>
								<g>
									<g>
										<path style="fill:#0F110E;" d="M170.523,267.264c0.639,0.096,1.276,0.215,1.908,0.35c0.862,0.184,2.213,0.334,2.905,0.931
											c0.185,0.16,0.263,0.303,0.147,0.585c-0.278,0.674-1.339,0.857-1.955,0.969c-2.262,0.411-4.689,0.157-6.953-0.088
											c-2.791-0.301-5.446-0.938-8.178-1.567c-4.13-0.95-8.257-1.918-12.371-2.935c-2.159-0.534-4.316-1.077-6.461-1.667
											c-1.324-0.364-2.714-0.689-3.975-1.247c-0.437-0.194-0.82,0.453-0.378,0.648c3.041,1.346,6.518,1.969,9.728,2.77
											c4.543,1.133,9.103,2.201,13.666,3.249c3.235,0.743,6.328,1.401,9.659,1.657c1.997,0.153,4.219,0.321,6.173-0.259
											c0.691-0.205,1.51-0.565,1.761-1.307c0.12-0.354,0.095-0.777-0.109-1.097c-0.474-0.741-1.799-0.968-2.569-1.161
											c-0.921-0.231-1.858-0.412-2.796-0.554C170.25,266.469,170.046,267.192,170.523,267.264L170.523,267.264z"/>
									</g>
								</g>
							</g>
						</g>
						<g>
							<path style="fill:#6348ED;" d="M124.596,211.358l23.804-36.136c0,0-8.044,1.209-18.84,6.841
								c-8.021,4.184-17.718,11.118-25.933,20.173c-4.448,4.902-8.563,9.698-11.957,16.495c-3.165,6.337-6.864,11.28-8.369,16.003
								c-6.597,20.709,2.083,27.924,12.225,30.618c12.29,3.265,41.922,3.768,41.922,3.768l9.045-23.913l-29.444-9.271
								C117.051,235.936,121.191,220.08,124.596,211.358z"/>
							<g>
								<path style="fill:none;stroke:#010001;stroke-linecap:round;stroke-miterlimit:10;" d="M148.4,175.222
									c0,0-31.349,4.391-54.917,40.646c-22.085,33.973-10.246,46.219,2.044,49.483c12.29,3.264,41.922,3.768,41.922,3.768
									l9.045-23.913l-37.989-11.962"/>
								<path style="fill:none;stroke:#010001;stroke-linecap:round;stroke-miterlimit:10;" d="M117.051,235.936
									c0,0,4.14-15.856,7.545-24.577"/>
							</g>
							<path style="fill:#6348ED;stroke:#010001;stroke-miterlimit:10;" d="M146.495,245.207l-8.236-2.594l-9.094,26.248
								c4.921,0.2,8.285,0.258,8.285,0.258L146.495,245.207z"/>
						</g>
					</g>
					<g>
						<path style="fill:#FFFFFF;stroke:#010001;stroke-linecap:round;stroke-miterlimit:10;" d="M162.573,183.121
							c0,3.855-4.382,6.98-9.788,6.98c-5.405,0-9.787-3.125-9.787-6.98c0-3.855,4.382-6.98,9.787-6.98
							C158.191,176.141,162.573,179.266,162.573,183.121z"/>
						<g>
							<g>
								<g>
									<polygon style="fill:#F19101;" points="154.847,180.292 151.676,180.292 147.212,180.292 147.731,184.102 151.055,189.66 
										152.507,189.66 154.016,189.66 155.468,189.66 158.792,184.102 159.312,180.292 									"/>
									<g>
										<g>
											<path style="fill:#010001;" d="M151.315,190.134c1.333,0,2.666,0,3.999,0c0.643,0,0.645-1,0-1c-1.333,0-2.666,0-3.999,0
												C150.672,189.134,150.671,190.134,151.315,190.134L151.315,190.134z"/>
										</g>
									</g>
								</g>
							</g>
							<path style="fill:#6348ED;stroke:#010001;stroke-linecap:round;stroke-miterlimit:10;" d="M152.7,172.167
								c-8.091,0-14.65,4.431-14.65,9.897c0,5.466,6.559,9.897,14.65,9.897c8.091,0,14.65-4.431,14.65-9.897
								C167.351,176.598,160.792,172.167,152.7,172.167z M152.7,188.511c-5.271,0-9.544-2.886-9.544-6.447
								c0-3.561,4.273-6.447,9.544-6.447c5.271,0,9.544,2.887,9.544,6.447C162.244,185.624,157.971,188.511,152.7,188.511z"/>
							<polygon style="fill:#FFFFFF;stroke:#010001;stroke-linecap:round;stroke-miterlimit:10;" points="165.254,176.96 
								159.619,172.293 153.755,170.064 152.017,170.336 145.782,172.293 140.641,176.417 144.732,188.292 152.7,181.831 
								160.668,188.292 							"/>
						</g>
					</g>
					<g>
						<g>
							<path style="fill:#FFFFFF;stroke:#010001;stroke-miterlimit:10;" d="M163.195,136.282h-7.522
								c-5.001,0-9.093,4.659-9.093,10.352v11.661c0,0.329,0.017,0.653,0.044,0.974c-0.081,0.344-0.129,0.7-0.129,1.068v7.099v0.395
								v7.098c0,2.576,2.107,4.683,4.683,4.683h2.984c2.576,0,4.683-2.107,4.683-4.683v-6.282h4.35
								c5.001,0,9.093-4.659,9.093-10.353v-11.661C172.288,140.941,168.196,136.282,163.195,136.282z"/>
							<g>
								<path style="fill:#010001;" d="M147.471,152.452c0,0,1.701-9.824,2.159-8.373c0.653,2.07,0.576,13.531,2.799,14.539
									c2.942,1.333,4.024-3.701,9.95-3.904c5.926-0.202,9.333,2.711,9.908,5.083c0.576,2.372-2.476,5.754-4.338,7.308
									c-2.334,1.947-9.104,1.543-9.104,1.543s-5.865,0.356-8.318-3.105C147.975,161.942,147.471,152.452,147.471,152.452z"/>
								<g>
									<g>
										<path style="fill:#010001;" d="M157.235,150.445c0,0.936,0.759,1.696,1.695,1.696c0.937,0,1.696-0.759,1.696-1.696
											c0-0.936-0.759-1.696-1.696-1.696C157.994,148.749,157.235,149.508,157.235,150.445z"/>
										<path style="fill:#010001;" d="M168.336,150.196c0,0.799,0.648,1.447,1.447,1.447c0.799,0,1.447-0.648,1.447-1.447
											c0-0.799-0.648-1.447-1.447-1.447C168.984,148.749,168.336,149.397,168.336,150.196z"/>
									</g>
									<g>
										<path style="fill:#FFFFFF;" d="M166.717,157.134c0,0-0.852,2.483-2.654,2.653c-1.801,0.171-3.213-1.826-3.311-3.384
											L166.717,157.134z"/>
									</g>
									<g>
										<g>
											<path style="fill:#010001;" d="M156.748,148.436c0.475-0.177,0.96-0.326,1.453-0.443
												c0.237-0.056,0.476-0.106,0.716-0.148c0.129-0.023,0.259-0.043,0.389-0.062c0.182-0.026-0.092,0.01,0.09-0.012
												c0.075-0.009,0.149-0.018,0.224-0.025c0.259-0.028,0.513-0.21,0.5-0.5c-0.011-0.247-0.221-0.53-0.5-0.5
												c-1.074,0.115-2.126,0.349-3.138,0.725c-0.244,0.091-0.437,0.342-0.349,0.615
												C156.21,148.326,156.485,148.533,156.748,148.436L156.748,148.436z"/>
										</g>
									</g>
									<g>
										<g>
											<path style="fill:#010001;" d="M167.723,147.13c0.228-0.016,0.456-0.022,0.684-0.014
												c0.098,0.003,0.196,0.009,0.293,0.017c0.065,0.005,0.13,0.011,0.195,0.019c0.02,0.002,0.159,0.021,0.061,0.007
												c0.436,0.063,0.864,0.171,1.279,0.322c0.246,0.089,0.558-0.1,0.615-0.349c0.064-0.282-0.085-0.52-0.349-0.615
												c-0.883-0.32-1.841-0.452-2.778-0.385c-0.26,0.019-0.513,0.217-0.5,0.5C167.235,146.885,167.444,147.15,167.723,147.13
												L167.723,147.13z"/>
										</g>
									</g>
									<g>
										<g>
											<path style="fill:#010001;" d="M164.553,148.714c0.285,0.681,0.587,1.354,0.914,2.016
												c0.157,0.318,0.319,0.633,0.487,0.946c0.08,0.15,0.162,0.299,0.244,0.448c0.041,0.074,0.083,0.149,0.125,0.223
												c0.028,0.049,0.056,0.099,0.084,0.148c0.009-0.001,0.005-0.006-0.012-0.015c0.023-0.084,0.046-0.168,0.068-0.252
												c-0.01,0.016-0.021,0.033-0.031,0.049c0.06-0.06,0.12-0.119,0.179-0.179c-0.103,0.063-0.365,0.09-0.507,0.122
												c-0.186,0.043-0.372,0.084-0.559,0.124c-0.388,0.083-0.777,0.158-1.167,0.228c-0.266,0.048-0.416,0.372-0.349,0.615
												c0.077,0.28,0.348,0.397,0.615,0.349c0.636-0.114,1.269-0.243,1.898-0.392c0.32-0.075,0.67-0.129,0.809-0.471
												c0.14-0.344-0.065-0.651-0.228-0.942c-0.596-1.063-1.136-2.159-1.607-3.283c-0.104-0.249-0.331-0.427-0.615-0.349
												C164.667,148.163,164.448,148.463,164.553,148.714L164.553,148.714z"/>
										</g>
									</g>
								</g>
							</g>
							<path style="fill:#010001;" d="M148.551,154.523l1.388-9.134c0,0,25.27,3.168,33.461-9.107
								c8.192-12.275-0.417-17.134-4.582-16.44c-4.165,0.694-9.036,6.665-9.036,6.665s3.877-5.276,0-6.109
								c-3.877-0.833-8.16,3.193-10.392,7.359c0,0-16.656-1.553-22.287,8.526c-5.631,10.079-1.467,17.4,8.831,27.814l2.742-6.706
								L148.551,154.523z"/>
							<g>
								<path style="fill:#FFFFFF;stroke:#010001;stroke-miterlimit:10;" d="M149.329,155.218c0,3.299-2.674,5.973-5.973,5.973
									c-3.299,0-5.973-2.674-5.973-5.973s2.674-5.973,5.973-5.973C146.655,149.245,149.329,151.919,149.329,155.218z"/>
								<g>
									<g>
										<g>
											<path style="fill:#010001;" d="M146.745,155.499c0.092-1.439-0.592-3.062-1.949-3.683
												c-0.734-0.336-1.548-0.399-2.344-0.317c-0.222,0.023-0.413,0.173-0.413,0.413c0,0.205,0.19,0.436,0.413,0.413
												c0.357-0.037,0.717-0.048,1.075-0.013c0.116,0.012,0.214,0.027,0.374,0.064c0.139,0.032,0.274,0.075,0.408,0.124
												c0.023,0.008,0.046,0.018,0.069,0.027c-0.086-0.035,0.023,0.011,0.034,0.016c0.053,0.026,0.105,0.051,0.156,0.079
												c0.108,0.059,0.211,0.126,0.31,0.199c-0.081-0.059,0.05,0.042,0.067,0.056c0.04,0.034,0.078,0.07,0.116,0.107
												c0.08,0.079,0.155,0.163,0.226,0.25c-0.07-0.086,0.027,0.037,0.043,0.06c0.028,0.04,0.055,0.081,0.081,0.123
												c0.056,0.09,0.108,0.182,0.154,0.277c0.023,0.046,0.044,0.094,0.066,0.141c0.026,0.055-0.037-0.096-0.004-0.009
												c0.008,0.021,0.017,0.043,0.025,0.064c0.037,0.096,0.07,0.193,0.099,0.292c0.049,0.166,0.088,0.334,0.117,0.505
												c0.006,0.037,0.012,0.074,0.018,0.111c0.018,0.114-0.009-0.094,0.002,0.017c0.007,0.071,0.015,0.141,0.021,0.212
												c0.012,0.156,0.02,0.315,0.01,0.472c-0.014,0.223,0.2,0.413,0.413,0.413
												C146.568,155.911,146.731,155.722,146.745,155.499L146.745,155.499z"/>
										</g>
									</g>
								</g>
							</g>
						</g>
					</g>
				</g>
			</g>
			<g>
				<g>
					<path style="fill:#0F110E;" d="M31.112,459.996c6.08,0,12.16,0,18.24,0c16.397,0,32.795,0,49.192,0c24.311,0,48.621,0,72.932,0
						c29.66,0,59.32,0,88.98,0c32.373,0,64.745,0,97.118,0c32.9,0,65.8,0,98.699,0c30.467,0,60.934,0,91.401,0
						c25.839,0,51.677,0,77.516,0c18.577,0,37.154,0,55.731,0c8.777,0,17.565,0.125,26.342,0c0.384-0.005,0.768,0,1.152,0
						c1.609,0,1.611-2.5,0-2.5c-6.08,0-12.16,0-18.24,0c-16.397,0-32.795,0-49.192,0c-24.311,0-48.621,0-72.932,0
						c-29.66,0-59.32,0-88.98,0c-32.373,0-64.745,0-97.118,0c-32.9,0-65.8,0-98.699,0c-30.467,0-60.934,0-91.4,0
						c-25.839,0-51.677,0-77.516,0c-18.577,0-37.154,0-55.731,0c-8.777,0-17.565-0.125-26.342,0c-0.384,0.005-0.768,0-1.152,0
						C29.503,457.496,29.501,459.996,31.112,459.996L31.112,459.996z"/>
				</g>
			</g>
		</g>
	</g>
</g>
</svg>
